/* XPM */
static char *_e673ac45a274c1c9c0824d46c7e81526fPZoZkLc5iWbD1p[] = {
/* columns rows colors chars-per-pixel */
"64 64 182 2 ",
"   c #202020",
".  c gray14",
"X  c #2C2C2C",
"o  c #2F2F2F",
"O  c #343434",
"+  c gray22",
"@  c #400000",
"#  c #4C0000",
"$  c #580000",
"%  c #531515",
"&  c #640000",
"*  c #680202",
"=  c #700000",
"-  c #750303",
";  c #7C0000",
":  c #731515",
">  c #7D1515",
",  c #642F2F",
"<  c #7B2626",
"1  c gray25",
"2  c #434343",
"3  c gray27",
"4  c #484848",
"5  c #4C4C4C",
"6  c #4E4E4E",
"7  c gray32",
"8  c #535353",
"9  c gray33",
"0  c #585858",
"q  c #5A5A5A",
"w  c gray36",
"e  c #5F5F5F",
"r  c #7A4E4E",
"t  c #626262",
"y  c #646464",
"u  c #686868",
"i  c #6A6A6A",
"p  c gray42",
"a  c #6C6C6C",
"s  c #6D6D6D",
"d  c #6F6F6F",
"f  c #717171",
"g  c gray45",
"h  c gray46",
"j  c #800202",
"k  c #880000",
"l  c #8C0303",
"z  c #980000",
"x  c #881515",
"c  c #911111",
"v  c #931515",
"b  c #A40000",
"n  c #A70303",
"m  c #B00000",
"M  c #B20303",
"N  c #BC0000",
"B  c #AC1515",
"V  c #A51F1F",
"C  c #842323",
"Z  c #982323",
"A  c #9C2D2D",
"S  c #A62323",
"D  c #B02323",
"F  c #B32D2D",
"G  c #B32E2E",
"H  c #B73838",
"J  c #C80000",
"K  c #D40000",
"L  c #D50303",
"P  c #D91D1D",
"I  c #E00000",
"U  c #EC0000",
"Y  c #DA2323",
"T  c #DB2C2C",
"R  c #D43E3E",
"E  c #EF2C2C",
"W  c #824E4E",
"Q  c #8A4E4E",
"!  c #994C4C",
"~  c #9A4E4E",
"^  c #9D5555",
"/  c #A24E4E",
"(  c #AA4E4E",
")  c #B64E4E",
"_  c #BE4E4E",
"`  c #AD5454",
"'  c #947272",
"]  c #A96A6A",
"[  c #A77272",
"{  c #A97777",
"}  c #B47E7E",
"|  c #E25858",
" . c #C86A6A",
".. c #DD6A6A",
"X. c #C07E7E",
"o. c #C87E7E",
"O. c #E56A6A",
"+. c #E57070",
"@. c #E77777",
"#. c #E87E7E",
"$. c #848484",
"%. c gray53",
"&. c #8E8E8E",
"*. c #909090",
"=. c #939393",
"-. c gray60",
";. c #9B9B9B",
":. c gray62",
">. c #BB8080",
",. c #AD9494",
"<. c #B29494",
"1. c #BA9F9F",
"2. c gray65",
"3. c #ACACAC",
"4. c gray69",
"5. c gray71",
"6. c gray74",
"7. c gray75",
"8. c #C28181",
"9. c #C59494",
"0. c #CB9595",
"q. c #D69393",
"w. c #D69494",
"e. c #D39898",
"r. c #E19494",
"t. c #EB9090",
"y. c #CCAEAE",
"u. c #DBA1A1",
"i. c #D6ADAD",
"p. c #D7AEAE",
"a. c #C2B0B0",
"s. c #C7B6B6",
"d. c #CDB1B1",
"f. c #D5B2B2",
"g. c #D1B7B7",
"h. c #D2B8B8",
"j. c #D2BDBD",
"k. c #E3ACAC",
"l. c #E7ACAC",
"z. c #E8AEAE",
"x. c #F0ACAC",
"c. c #F8ACAC",
"v. c #E2B2B2",
"b. c #E9B2B2",
"n. c #F1B2B2",
"m. c gray76",
"M. c #C5C5C5",
"N. c #CACACA",
"B. c #CECECE",
"V. c #DAC8C8",
"C. c #D8CDCD",
"Z. c #DFCDCD",
"A. c #DADADA",
"S. c #DDDDDD",
"D. c #E2CECE",
"F. c #E6CDCD",
"G. c #EAC8C8",
"H. c #EBCCCC",
"J. c #ECCDCD",
"K. c #EFD0D0",
"L. c #EBDFDF",
"P. c #F0D8D8",
"I. c #E6E6E6",
"U. c #EDE0E0",
"Y. c #ECE5E5",
"T. c #EEE9E9",
"R. c #ECECEC",
"E. c #F0E1E1",
"W. c #F0E6E6",
"Q. c #F5E7E7",
"!. c #F9E0E0",
"~. c #F1E9E9",
"^. c #F4E9E9",
"/. c #F3ECEC",
"(. c #F3F3F3",
"). c #F7F3F3",
"_. c gray96",
"`. c #F9F0F0",
"'. c #FCF0F0",
"]. c #FCFAFA",
"[. c #FEFAFA",
"{. c white",
/* pixels */
"+ + + + + + + + + + + + + + + + + + + + + + + + + + + + + + + + + + + + + + + + + + + + + + + + + + + + + + + + + + + + + + + + ",
"9 + 9 4 4 4 4 4 9 4 4 4 4 4 4 9 4 + 4 4 4 4 4 4 4 9 9 9 9 9 9 4 4 4 4 4 4 4 4 4 9 9 9 9 9 9 9 4 4 4 4 + + + 4 4 9 9 4 4 4 4 4 + ",
"+ U U K K K K K K K K K b 4 4 9 U U K K K K K K K K K K K K K K K K K K b 4 + 9 U U U U I I I I I I K K K K K J J J J N N N b 4 ",
"4 U J m m K k b K k J b & X 4 9 U N k N k N k N ; N z N z N ; N ; N J b = X 4 + K b J m J m m J = J ; J m J k m b ; J z J b ; X ",
"4 K b ; b k b z = b k = & X 4 9 K N k k b k = b b = z b b = z b = b z = $ X 4 9 K b b ; & b k = k b ; k b b k b ; k b $ b = & X ",
"4 K ; b b = z b b = b $ @ X 4 9 K k N b k b = b k b = b = k ; b = z ; = $ X 4 4 K = b & k b & b = b ; b k b & b z ; b ; b = # X ",
"4 J b ; k z ; b = k b = @ X 4 9 N N k b k k z b = k = b k = z ; k = b = @ X + 4 N = b ; b k & b = = b b = b k b b ; b $ b k # X ",
"4 N ; b b = b z = z = $ @ X 4 4 N J k b = b = b = b = z k = ; b = z ; = $ X + 4 N z b & k b ; k = k ; b k b & b ; k b ; b = @ X ",
"4 N b = k $ = ; $ = k = @ X + 9 z z = = # k = = k = # = k = k = # k = = @ X + 4 N = = $ = = # k # = $ k # = # k & # = k = k @ X ",
"4 ; & & & @ @ @ @ @ @ @ @ X + 4 ; & & $ $ $ $ $ $ $ $ $ @ @ @ @ @ @ @ @ @ X + 4 k & & & & & & & & & & $ $ $ $ $ $ $ $ $ @ @ @ X ",
"4 4 X X X X X X X X       X + 9 4 X X X X X           X X         X X X X X 4 9 + X X X X X X X X X X X           X X X X X X X ",
"9 + + + + 4 4 4 4 + + + + + 4 + 4 4 4 4 4 4 4 + + + 9 4 4 4 + + 4 4 4 4 4 4 9 + 4 9 9 9 9 w y y w 9 9 4 4 1 + 1 9 + 9 4 4 4 9 + ",
"U K K K N N N N N N N N N N N b 4 9 4 U U K K K K K K J J J J J J J N N N N N N N N N N N N N N N N N N b 4 1 9 U U K K K K K K ",
"m k k m z ; m ; z k m & m k b @ + 4 9 U = m J ; N & k N k k J z b k ; k b k b k b ; J & J k z N J z J b @ + 4 + U J ; m k m k m ",
"k b k b ; k k & b k & k b b = @ X 4 4 K m = b ; b b k b & b = & k b ; b ; b & b b k & b k b = k b = b = @ + 4 9 J m ; b k ; b z ",
"= b b k z & b ; k k z & b k = @ X + 4 K = b k z k k & k k = b k & b k ; & ; k k b $ k ; b = b = b b = = @ X 1 4 J ; b b b ; b ; ",
"b k k b k ; ; k ; b z & b & = @ X + 4 K = b b ; b & k b & = b & k b ; k ; b & b k $ b & b = k = b = b = @ X + 4 J m ; b ; b z ; ",
"= b & b = k ; z & b & k b b = @ X 4 9 K m $ b ; b k & k $ k = & b k ; $ ; b & k $ k b & k b = k b = b = @   + 4 m ; b b $ b ; k ",
"= m & = # ; = z = z = $ z = = @ X 4 9 m b = k $ = z * k & = k $ = z = z & k * k k $ z = = k # = z = k = @   1 9 m b ; = $ = z = ",
"@ # # # # # # # # # # # # @ @ @ + 4 9 b & & & & & & & & & & & & & $ $ $ $ $ $ $ $ $ $ $ $ $ $ $ $ $ $ @ @   4 + b & @ & @ @ & @ ",
"X X X   X X X       X X X     X + 4 + 4 + O X 0 s s 0 O O O + + O X X X   e a i 2 X X X         X X X X X + 4 9 4 X X X X X X X ",
"9 9 4 + + 4 9 + 9 + 4 4 + + + + 4 4 9 4 4 4 1 2.A.A.3.1 1 4 4 4 9 + 9 4 1 N.S.S.&.3 4 4 9 1 + + 1 4 4 4 9 4 9 + 9 1 + 1 9 4 4 4 ",
"9 U U K K K K K K K N N N N N N N N N N N N N z.[.{.G.H u f f E E T T T T P.{.[.t.K K N N N N N N N N N N N N N N N N N N N b 4 ",
"9 U k m N ; N ; N ; m k m k m J k m k m k N m y.[.{.L.a.7.m.M.c.z.y.x.k.k.'.{.[.X.M z m ; & b k = k b ; k b z k b ; k b $ b @ X ",
"+ U m k b z b ; = k b b k z k b k & b = b k & p.[.{.{.{.{.{.{.{.{.{.{.{.{.{.{.{.o.l & b & k b & b = b ; b k b & b z ; b ; = @ X ",
"4 N & b b = k $ b & b = b k z b & k b = k b k y.[.{.W.s.7.N.B.n.b.f.v.f.v.).{.{.o.n ; b ; b k & b = = b z = z k b b ; b $ = @ X ",
"4 N m k b # b $ = k b k = ; b ; k & ; b & b k y.[.{.j., 5 a h Y C D C S Z L.{.{.} n & k & k b ; k = k ; b k b & b ; k b ; = @ X ",
"9 N = & b # k ; b & b $ b & b k & k b k & b & p.[.{.K.' $.=.-.O...]  .]  .W.{.{.} n & b $ = = # b # b $ b # b b k & # = k = @ X ",
"4 J b & = = = $ = # = = k & k = = k = = & = z y.[.{.[.(.(.(._.'./.`.'.'.`.{.{.{.} - & k = k # b $ = b # = k # b $ b # b = = @ X ",
"4 b z & & & & & & & & & & & & & & # # # # # # 1.Y.T.T.T.R.R./.Y.~.~.T.~.~.~.~.W.[ * & & & & $ $ $ $ $ $ $ $ $ $ $ $ @ $ ; $ @ X ",
"4 4 + X X X X X X X X X X X X X X X X X + + + f &.*.*.*.*.:.:.2.*.*.=.&.&.=.&.=.8 .       X + + + X       X X X X X X X X X X X ",
"9 9 9 9 9 4 4 + 4 + + + 4 9 y y 9 9 9 4 7 0 9 7 5 5 7 5 5 7 y 0 w 0 y 5 y q y 9 9 5 9 1 1 4 9 9 4 4 1 + 1 4 4 4 9 + 9 4 4 4 9 + ",
"N N N N N N N N N N b 4 + 9 K K K K K K | t.r.r.r.r.r.r.r.r.r.r.r.r.r.r.r.r.r.w.3.5.5.R U K K K K K K K K K N N N N N N N N N N ",
"b m b m z J m m J b @ + 4 + K b & b & b u.[.{.{.{.{.{.{.{.{.{.{.{.{.{.{.{.{.{.{.{.{.{.+.b ; b = b b & b ; k ; b = b k b ; b = b ",
"b ; k b z b ; b k = @ X 4 9 K & b ; k b >.G.J.F.H.F.F.D.F.F.[.{.{.Q.D.F.H.Z.H.C.A.A.S.| b $ b = b k & b k b ; k k z = z ; z k = ",
"k ; b z ; b ; z b = @ X 4 + K & b b ; z G ! _ ~ _ ( _ Q _ W P.{.{.p.^ ) _ / _ r h %.=.P b ; b = b k b k b b ; b = z k b z ; b = ",
"b k ; b z b z ; k = @ + 4 9 K z & b ; b ; $ z c v v > v B : L.[.{.0.V x v B x % 1 9 y K ; b b = b & b b ; ; b ; b k z z k ; = k ",
"b k ; b ; b ; z b = @ + 4 4 K & b ; $ z b = k 8.q.0.q.<.0.<.^.{.{.H.e.<.w.9.w.,.s 5 9 J b ; b b = b k k ; b ; b = z k b ; k b = ",
"= = k z = = z = = = @ + 4 4 z & b b $ b ; * b U.{.{.{.{.{.{.{.{.{.{.{.{.{.{.{.{.&.5 9 J b $ b = b b k b k b ; b = z = z ; b b = ",
"@ @ # # # # # # # @ @ X 4 4 b & & & & & & & & d.V.V.V.V.V.V.V.V.V.V.V.V.V.[.{.{.&.5 4 b & & & & & & & & & & & & & & & $ $ $ $ @ ",
"X X X X X X X X X X X X 4 9 4 X         X X + s f i t t t t t i i i i u s R.{.{.&.5 4 4 X X X X + + 4 + X X       X X X X X X X ",
"9 4 9 + 4 + + 4 4 + + + + 4 4 + + + 4 4 4 4 4 9 9 4 4 + + + 9 4 4 4 7 + 4 I.{.{.:.5 9 4 9 + 9 4 9 w y 9 5 4 4 + 9 4 9 4 9 + 9 + ",
"+ U K K K K K K K N N N N N N N N N N N N N N N N N N N N N N b + 9 + U U !.{.{.@.K K K K N N N N N N N N N N N N N N N N N b 4 ",
"9 K b k k b & b b ; z b ; b = k b & b ; b k b & b & b b ; = b @ + 4 8 U b P.{.{.{ n $ b = b $ b k $ z k = b k ; b ; z = k b @ X ",
"4 K b & b k & b k z ; b & k $ b z & b $ k z k & b ; b ; b = z @ X 4 4 K k E.{.{.{ j $ k $ z ; b $ b & b = k = b k ; z b & k @ X ",
"4 K k & b & k = & b & b k ; k b & z k k $ ; b # z $ k & k k = @ X + 4 K k u.g.h.` b ; $ b ; $ z b $ b = = b = b ; b = k & b @ X ",
"+ K b k b k & b k ; z b ; b $ k b & b $ k b $ z b ; b b b = ; @ X + 4 K b < G A : b $ b = z ; ; $ k & b ; k z k z ; = b k b @ X ",
"9 K b & k b & b & b & b & b = b & & b $ k ; b ; k & z & k = b @   + 9 K b & & b & ; $ b $ b $ z $ b & k = b = ; b ; z k & = @ X ",
"+ J b & b & k = k z ; b k k k b z & k ; $ & b # b = z ; b = b @   + 9 J = b & k & b $ ; b ; $ z = k & b = b = b ; z = b & b @ X ",
"9 b & & & & & & & & & # # # # # # # # # # # # # # # # # # # # @ X 4 9 b & & & & & & & & & $ $ $ $ $ # # # # # # # # # # # @ @ X ",
"+ 4 X X X X X X X X X X + + + X         X X X         X X     X X 4 + 4 X X X X X X       X O + O X   X X X X       X X X X X X ",
"9 + 9 + 9 4 9 4 4 4 4 9 y y 9 4 9 + 9 4 9 4 1 + + + 1 4 9 4 4 + 4 4 9 + 9 4 4 4 4 4 4 4 4 5 9 9 9 5 4 4 4 4 + O     O O 4 4 9 4 ",
"K K K K K N N N N N N N N N N N N b 4 9 4 U U K K K K K K K K N N N N N N N N N N N N N N N b 4 + 9 U K K K K K N N N N N N N N ",
"; b $ b b & z & b ; J ; b & b ; b @ X 4 4 K b b b b & b # b ; b & b & b z b & b & b $ b = & @ + 4 9 K b & k b $ b = b = b & b = ",
"b ; ; b ; b & z ; & b $ ; & k & k @ X 4 4 K ; b = b & = # ; z ; b k & k z & ; k = k $ b & b @ O 4 9 K & b $ b = b = k b = b k # ",
"b ; $ ; b & z & ; b ; $ b k & z ; @ X 4 1 K ; ; = b & ; ; b $ b # b b & b & b & k $ k k & = @ X 4 9 K & b = = b b k = k = & = k ",
"; z $ z & & b & b ; b $ ; = & b & @ X 4 1 K b # = b & b # b ; z & b & k ; & b & b k $ = z & @ X 4 9 K b & $ b k = = b = b & = b ",
"& b ; b & b & k b & b ; $ k b ; k @ X 4 1 K # b b & b ; = k $ ; # b & b & ; ; & k = $ k = & @ X 4 4 K & b k b = b k = = $ b = b ",
"& b ; ; & z z & z & ; $ b & b & z @ X 4 4 K # b = b & ; ; k # z & k # b ; & b k & b $ b $ k @ X + 4 K & b $ = $ b = b = $ & b # ",
"; z $ b & & k & ; ; b $ b & = k ; @ X 4 9 J b # = b & b # k & b & b = & b & ; b & k = k & k @ X + 4 J & & $ b $ b = b = b & b = ",
"# # # # # # # # # # # # # # # # @ @ X 4 4 b @ @ @ @ @ # # # # # # # # # # # # # # # # # # @ @   4 9 b @ @ # # # # # # # # # # # ",
"X X X X X X X X X X X X X X X X X X X 4 9 4 + O O X X X X X X X X X X X X X X           X       + 4 4 X X X X X X           X X ",
"+ 9 + 9 + + + 4 4 4 4 4 9 9 + 4 4 4 4 9 9 9 9 9 4 4 4 9 4 4 4 9 4 4 + 4 4 4 1 + + 1 + + 1 4 1 + 1 9 4 4 + 9 4 4 4 4 1 + 1 4 4 4 ",
"9 9 9 9 9 9 9 9 9 9 9 9 9 9 9 9 9 9 9 9 9 9 9 9 9 9 9 9 9 9 9 9 9 9 9 9 9 9 9 9 9 9 9 9 9 9 9 9 9 9 9 9 9 9 9 9 9 9 9 9 9 9 9 9 "
};
