/* XPM */
static char *_76f2e14f6644daa8bb232e13d50a7c0cPSEKMIlUz4Xc6JI[] = {
/* columns rows colors chars-per-pixel */
"48 48 169 2 ",
"   c None",
".  c #5A6B75",
"X  c #5F6F79",
"o  c #5F7079",
"O  c #6C6A76",
"+  c #6C6F7A",
"@  c #60717B",
"#  c #6D787E",
"$  c #806B75",
"%  c #86717B",
"&  c #6A7B84",
"*  c #6B7F8B",
"=  c #717C83",
"-  c #897A83",
";  c #9F7D84",
":  c #6B808E",
">  c #748086",
",  c #77848A",
"<  c #7A868C",
"1  c #7D888E",
"2  c #6E8391",
"3  c #718693",
"4  c #758A96",
"5  c #7D8B92",
"6  c #7A8E9A",
"7  c #7D919D",
"8  c #82838D",
"9  c #838C93",
"0  c #9C8F96",
"q  c #849097",
"w  c #85939B",
"e  c #89969D",
"r  c #8C989F",
"t  c #9A979E",
"y  c #AB8186",
"u  c #B58C90",
"i  c #8295A1",
"p  c #8799A4",
"a  c #8C9AA2",
"s  c #8D9EA9",
"d  c #939EA4",
"f  c #989FA6",
"g  c #919FA8",
"h  c #8FA0AB",
"j  c #95A0A7",
"k  c #94A3AB",
"l  c #9AA5AB",
"z  c #9EA8AE",
"x  c #97A7B0",
"c  c #98A7B0",
"v  c #96A8B1",
"b  c #9BAAB3",
"n  c #A1AAAF",
"m  c #A3ADB2",
"M  c #A0AFB8",
"N  c #A6B0B6",
"B  c #A9B2B7",
"V  c #A5B3BA",
"C  c #ABB5BA",
"Z  c #ABB8BE",
"A  c #B3BBBF",
"S  c #CF9B9D",
"D  c #C6A8AB",
"F  c #DCB4B5",
"G  c #DBB7B8",
"H  c #D7BCBE",
"J  c #DBB9BA",
"K  c #E4A7A7",
"L  c #E2ADAD",
"P  c #E1AFB0",
"I  c #E1B5B5",
"U  c #E3BDBD",
"Y  c #A4B5C0",
"T  c #A7B8C2",
"R  c #ABBBC4",
"E  c #B3BDC2",
"W  c #BFBFC3",
"Q  c #D6BEC0",
"!  c #AEC0C8",
"~  c #B6C1C6",
"^  c #B9C3C6",
"/  c #B3C4CB",
"(  c #BCC6CA",
")  c #BEC9CD",
"_  c #BBCCD2",
"`  c #BDD0D5",
"'  c #C0CCCF",
"]  c #CFCBCD",
"[  c #DDC5C6",
"{  c #D0C7C9",
"}  c #D2CACC",
"|  c #CCCFD2",
" . c #DCCFD0",
".. c #C3D2D6",
"X. c #CCD0D3",
"o. c #C4D6DA",
"O. c #C9D7D9",
"+. c #C6DADD",
"@. c #CBDADC",
"#. c #D4D3D4",
"$. c #DBD4D5",
"%. c #D0DDDE",
"&. c #DFDBDB",
"*. c #E3C0C0",
"=. c #E4CBCB",
"-. c #E1D5D5",
";. c #E3DCDC",
":. c #C5DEE1",
">. c #CCDEE1",
",. c #D1DFE1",
"<. c #CEE2E4",
"1. c #D4E3E5",
"2. c #D9E7E7",
"3. c #D8E6E7",
"4. c #D8E5E6",
"5. c #DDE7E7",
"6. c #D9E5E6",
"7. c #D4E7E8",
"8. c #D6E7E9",
"9. c #D9E7E8",
"0. c #D9E7E9",
"q. c #DAE7E8",
"w. c #DAE7E8",
"e. c #D5E8EA",
"r. c #DBE9E9",
"t. c #DBE8E9",
"y. c #DBEBEB",
"u. c #D9E9EA",
"i. c #DEE8E9",
"p. c #DCEAEA",
"a. c #DDEAEB",
"s. c #DFEBEB",
"d. c #DFE9EA",
"f. c #DBEBEC",
"g. c #D8EBEC",
"h. c #DBEDED",
"j. c #DCEDED",
"k. c #DEECEC",
"l. c #DEECED",
"z. c #DEEDED",
"x. c #DFEDED",
"c. c #DFEEEE",
"v. c #DEEFEF",
"b. c #DEEEEE",
"n. c #DEEEEE",
"m. c #DDEBEB",
"M. c #E0EAEA",
"N. c #E4E9E8",
"B. c #E0EEED",
"V. c #E0EEEE",
"C. c #E0EFEE",
"Z. c #E1EFEF",
"A. c #E0EFEF",
"S. c #E2EEEE",
"D. c #E1EFEE",
"F. c #E1F0EF",
"G. c #E2F0EF",
"H. c #E2F0F0",
"J. c #E2F1F0",
"K. c #E3F1F1",
"L. c #E3F2F1",
"P. c #E2F2F1",
"I. c #E4F3F2",
"U. c #E5F3F3",
"Y. c #E4F2F2",
"T. c #E4F1F0",
"R. c #E5F4F3",
"E. c #E7F6F5",
"W. c #E3F2F1",
/* pixels */
"                              :.:.:.                        :.:.:.                              ",
"                              O.+.O.                        +.O.+.                              ",
"                            X.| ] ] X.                    ] } ] ] |                             ",
"                          +.} Q J Q ] O.                o.] H G H ] O.                          ",
"                        :.@.{ F L G } O.:.            :.+.} J L G } @.:.                        ",
"                        :.o.{ F K F } %.7.e.        7.1.1.#.[ U [ X.+.+.                        ",
"                        :.o.{ F K I  .4.f.h.v.M.V.v.y.e.4.6.&.-.$.@.@.:.                        ",
"                        :.@.} G L U -.N.v.v.m.v.N.v.v.m.N.v.i.i.4.>.+.:.                        ",
"                      <.<.>.#.[ U =.;.V.P.A.N.v.v.v.v.v.V.V.V.v.f.e.1.e.e.                      ",
"                    :.<.1.4.5.;.-.N.N.W.P.V.v.V.v.m.N.v.i.v.v.V.b.l.j.f.l.b.                    ",
"                  ` +.>.1.f.d.d.N.5.4.4.2.i.V.V.i.v.V.V.m.v.V.m.d.8.,.4.m.m.m.                  ",
"                / _ ` ..o.>.1.f.v.@.( E ( @.i.V.V.V.V.V.H.P.P.i.#.' E ' >.t.q.@.                ",
"              R ! ! ! / / ` :.1.4.( f 9 d ( 4.S.V.v.V.P.W.U.P.y.( f 9 f ) 0.,.` R               ",
"            T T T R R R R ! ..1.1.E 9 + 9 E 4.W.G.v.i.q.4.i.v.4.E 8 O 9 E 0.,._ R T             ",
"              T R ! ! / / _ @.1.4.' f 8 d ( q.W.R.V.%.( E ) 1.4.' f 8 f ( 4.1...R               ",
"                / ` ` o.:.>.1.f.5.@.( E ( @.i.E.E.i.' f 9 l ' 4.,.' E ( >.d.f.>.                ",
"                  ` o.:.1.7.i.m.i.t.q.4.4.i.v.G.v.%.C - O 8 A %.4.q.4.y.i.m.m.                  ",
"                _ _ _ o.o.>.1.q.m.H.P.P.W.W.i.@.' C t - O - t C ' 1.V.W.G.v.1.O.                ",
"              T R ! / / / _ o.1.m.V.H.H.W.W.e.( f 8 - ; y ; - - l ) i.R.W.v.,._ R               ",
"            T T T R R R R / _ @.m.V.V.V.P.P.4.E 9 O % u S u % + 9 E 4.W.G.i.>._ R Y             ",
"              R R ! ! / / _ o.1.m.V.V.V.V.P.y.( f 8 0 D G D 0 8 f ( y.P.P.i.1._ R               ",
"                / _ ` ` o.@.4.y.m.V.V.m.V.V.i.@.( E W } -.} Q E ( @.y.V.H.m.7.O.                ",
"                  o.:.<.1.2.m.m.V.V.V.V.V.V.m.i.q.1.q.d.i.q.7.1.4.i.V.V.v.m.m.                  ",
"                    :.<.7.g.m.m.V.V.V.V.V.V.V.T.U.U.P.P.P.P.P.P.W.V.m.m.V.V.                    ",
"                      :.1.1.7.m.V.P.S.V.H.P.V.S.U.U.W.P.P.P.P.W.G.G.V.M.v.                      ",
"                        +.+.>.7.y.i.i.i.y.i.i.5.y.q.y.i.i.y.y.i.m.M.V.v.                        ",
"                          +.o.......O.@.@.@.@.@.......O.@.@.@.@.%.4.G.                          ",
"                            / Z C C E E ^ ^ E E Z V C E ^ ^ ^ ^ ' @.                            ",
"                              k j k m B C C C m l j l n B C C B B                               ",
"                            s a a k m C C Z C m l d j n n N N n n k                             ",
"              v.          b k k k b C E E ^ E C m z n n N B N N z j e                           ",
"            v.V.v.      k b x b b V Z ~ ~ ^ E E C m m n n n m n l g a r                         ",
"            V.i.1./   7 p h h v b M M m V m m V B B n l d d d d r r r w 3                       ",
"            P.i.o.V 7 3 6 w p k c c d d d a d j n m l e 1 1 1 9 q e r 5 > o                     ",
"            P.q.` v 7 2 3 4 7 k c k a q 5 9 9 r l z f 9 , > = > < w w 5 : . .                   ",
"            P.q.) v 4 : 2 3 7 h c g a w w e a d d t r q 1 < , < 5 w w 5 > o .                   ",
"            W.q.) v 4 : : 2 7 s c c k g k c m l e 9 9 e d r w 5 q e e 4 : . .                   ",
"            P.q.` v 7 4 4 6 7 h c b c b M E E m q , 9 d n l d r r r e 5 & o .                   ",
"              q...Z b v v v b b b b b M V E Z m d q q d l l d a r a e 5 & o                     ",
"                @.` ` ` ` ) / Y b b b b M M V m l d d f d d d r p p                             ",
"                  g.2.y.2.1...~ b b b b b b b M m n l j a p p r e                               ",
"                    R.R.E.V.@.~ b k k a k k c M N B b j e q q 9 7                               ",
"                                  a e w e p               5 < , ,                               ",
"                                    5 5 5                   = = =                               ",
"                                      <                       #                                 ",
"                                                                                                ",
"                                                                                                ",
"                                                                                                "
};
