/* XPM */
static char *ad419415a6864a8d842b70c95623fda2pIKNWoQUqsVsLuTh[] = {
/* columns rows colors chars-per-pixel */
"48 48 193 2 ",
"   c None",
".  c #061518",
"X  c #081418",
"o  c #091418",
"O  c #091518",
"+  c #091619",
"@  c #091719",
"#  c #0A1719",
"$  c #0A171A",
"%  c #20201D",
"&  c #21201D",
"*  c #21211D",
"=  c #21221E",
"-  c #21231F",
";  c #22231F",
":  c #24211E",
">  c #22241F",
",  c #242721",
"<  c #3B2A21",
"1  c #392F24",
"2  c #373226",
"3  c #403627",
"4  c #4C3123",
"5  c #493D2B",
"6  c #543424",
"7  c #553424",
"8  c #543425",
"9  c #553425",
"0  c #553525",
"q  c #563425",
"w  c #563525",
"e  c #563625",
"r  c #583B28",
"t  c #5E3929",
"y  c #51412C",
"u  c #53422D",
"i  c #5B422C",
"p  c #5C482F",
"a  c #5D482F",
"s  c #5D4930",
"d  c #5E4930",
"f  c #68422B",
"g  c #60482F",
"h  c #7B442A",
"j  c #714231",
"k  c #994F2F",
"l  c #9E512F",
"z  c #9F512F",
"x  c #875835",
"c  c #9D5130",
"v  c #9E5130",
"b  c #9F5431",
"n  c #9C5234",
"m  c #97533D",
"M  c #99523A",
"N  c #9E563F",
"B  c #9F563F",
"V  c #A0522F",
"C  c #A05230",
"Z  c #A15230",
"A  c #A35F37",
"S  c #A95C35",
"D  c #AA593E",
"F  c #AD5A3E",
"G  c #AE5B3E",
"H  c #AD5C3F",
"J  c #85623B",
"K  c #88633C",
"L  c #AA6E3F",
"P  c #BB6C3D",
"I  c #CE6437",
"U  c #C2613B",
"Y  c #CB643C",
"T  c #CA663D",
"R  c #CC653C",
"E  c #D56739",
"W  c #D86838",
"Q  c #DA6938",
"!  c #DB6938",
"~  c #DC6838",
"^  c #DE6938",
"/  c #DD6A39",
"(  c #DF6B39",
")  c #DA6C3A",
"_  c #DD703C",
"`  c #E36B3A",
"'  c #E56D3B",
"]  c #E16F3C",
"[  c #EA6D39",
"{  c #EB6E39",
"}  c #E86D3A",
"|  c #EA6E3A",
" . c #EC6F3A",
".. c #ED6F3A",
"X. c #E3733E",
"o. c #E6713C",
"O. c #E7713C",
"+. c #E7743E",
"@. c #EF703B",
"#. c #E8723C",
"$. c #EA723D",
"%. c #EC733D",
"&. c #E9753E",
"*. c #EB763F",
"=. c #ED773F",
"-. c #F2713B",
";. c #9F5640",
":. c #9E5841",
">. c #9E5A42",
",. c #A55E43",
"<. c #AE6042",
"1. c #B06745",
"2. c #B86542",
"3. c #B76D48",
"4. c #A97845",
"5. c #AA7845",
"6. c #AC7945",
"7. c #AF7945",
"8. c #B07C47",
"9. c #B07D47",
"0. c #B27D47",
"q. c #B37E48",
"w. c #D16D40",
"e. c #C77447",
"r. c #CE7144",
"t. c #DA7A46",
"y. c #E17C43",
"u. c #E47C43",
"i. c #E97F44",
"p. c #E87F45",
"a. c #C8864B",
"s. c #D4804C",
"d. c #DB8C52",
"f. c #EC8044",
"g. c #ED8044",
"h. c #EE8044",
"j. c #EF8145",
"k. c #ED8245",
"l. c #EF8345",
"z. c #E08F4E",
"x. c #F18145",
"c. c #F08345",
"v. c #F28446",
"b. c #F48547",
"n. c #EA914F",
"m. c #E49253",
"M. c #ED9552",
"N. c #E69E56",
"B. c #E79E56",
"V. c #F19451",
"C. c #F29550",
"Z. c #F49651",
"A. c #F69751",
"S. c #F79751",
"D. c #F79851",
"F. c #F69852",
"G. c #F89851",
"H. c #F99A52",
"J. c #FA9B52",
"K. c #FB9B53",
"L. c #FE9C53",
"P. c #F1A257",
"I. c #F2A559",
"U. c #F3A65A",
"Y. c #F3A75A",
"T. c #F8A55A",
"R. c #F6A85B",
"E. c #F7A85B",
"W. c #F8A95B",
"Q. c #F9A95B",
"!. c #FDA95B",
"~. c #FEA95B",
"^. c #FEAA5B",
"/. c #FBAA5C",
"(. c #FDAA5C",
"). c #FDAB5C",
"_. c #FEAB5C",
"`. c #FFAB5C",
"'. c #FFAC5C",
"]. c #FFAD5D",
"[. c #FFAE5D",
"{. c #FFAE5E",
"}. c #FFAF5E",
"|. c #FFB05E",
" X c #FFB05F",
".X c #FFB15F",
"XX c #FFB25F",
"oX c #FFB260",
"OX c #FFB360",
"+X c #FFB460",
"@X c #FFB561",
"#X c #FFB661",
"$X c #FFB761",
/* pixels */
"      X X X X X X X X X X X X       X X . X X X X X X X X X       . X X X X X X X X o o X       ",
"      - > > > > - - > > > > -       - > > > > > > > - , - -       - > > > > > > > > > > -       ",
"    3 u p d g d d d d a g d u 2   2 u p d d d d g d d d p u 2   2 y a a g d d d d d g d u 3     ",
"X - u K 5.q.8.q.8.8.8.8.q.5.J 5 , 5 J 5.q.q.9.7.q.7.q.q.5.J 5 , y J 4.q.8.8.8.8.8.8.q.5.K u > X ",
"X > a 5.N.Q.E.I.I.I.I.E.Q.N.6.g 1 p 5.B.Q.E.I.I.I.I.E.E.N.5.g 2 g 7.B.W.E.I.I.I.Y.Q.Q.N.5.p > X ",
"X - d q.Q.$X$XXXXXXXXX$X$X^.a.x f x a./.$X$XXXXXXXXX$X$X^.a.x f x a.^.XX$XXXOXOXXX$X$XT.q.d > X ",
"X > d 8.E.$XOX}.}.}.}.OXOX`.z.P S P z.^.OXOX}.}.}.}.XXOX}.z.P S P d.`.OXOX}.}.}.XXXX$XE.8.d > X ",
"o > a 8.I.XX}.}.}.`.}.}.}.^.S.u._ u.S.^.}.}.}.`.}.}.}.}.^.C.u.( y.C.`.}.}.`.`.}.}.}.XXI.8.d > X ",
"o > g q.I.XXXX}.'.}.}.}.}.^.G.x.i.x.S.`.{.`.`.}.`.}.}.}.^.S.x.=.x.G.^.}.}.`.}.`.}.}.XXI.q.d > o ",
"o > d 7.I.XX}.'.}.^.}.`.}.~.S.i.@.i.S.`.{.}.}.`.}.`.}.}.^.S.h.*.x.G.^.}.}.}.`.}.}.}.XXI.7.g > X ",
"X - d 9.I.XX}.}.}.`.`.}.}.~.K.i.#.i.S.!.{.{.`.}.`.}.}.}.^.S.i.*.i.G.~.}.}.`.}.`.`.}.OXI.9.d > X ",
"X , d 9.I.XX}.^.`.}.`.}.}.~.G.i.*.h.S.!.OX{.}.`.}.`.`.}.^.S.i.+.i.S.~.}.`.}.`.}.}.}.OXI.9.d - X ",
"X - d 8.I.XX}.}.}.`.`.}.}.`.G.i.+.i.G.`.{.{.}.}.`.}.`.}.~.S.i.#.i.G.^.}.}.}.`.}.}.XXXXI.9.d , X ",
"X - d 8.I.XX}.}.`.}.`.}.}.!.G.i.+.i.S.~.{.`.}.`.}.`.}.}.~.S.h.+.i.G.~.}.}.`.}.^.^.}.XXI.7.d - . ",
"X > d 8.I.XXXX`.}.`.}.}.}.!.S.i.#.i.S.~.}.}.`.}.`.}.}.}.`.S.f.+.i.G.~.}.`.}.}.}.}.}.XXI.8.d - X ",
"X > d 8.I.XX}.}.`.}.`.}.}.!.S.i.*.i.S.~.}.}.}.`.}.`.}.}./.S.f.+.i.S.~.}.}.`.^.}.'.}.XXI.8.d > X ",
"X > d 8.I.XX}.}.`.}.`.}.}.~.G.x.+.h.S.`.}.`.}.`.}.`.{.OX!.S.i.#.i.G.~.}.}.`.`.}.`.}.OXI.9.d , X ",
"X > d 8.I.XX}.`.}.`.}.`.}.~.G.i.+.i.S.^.}.}.`.}.`.}.{.{.!.S.i.u.i.G.~.}.}.}.}.`.}.}.OXI.9.d - X ",
"X > p 8.I.XX}.}.`.}.}.}.}.~.G.i.#.i.S.~.}.}.}.`.}.`.{.{.`.S.i.@.i.G.~.}.`.}.`.}.}.}.XXI.7.d > o ",
"X > p 8.I.XX}.}.}.`.`.}.}.~.G.i.+.i.S.~.}.}.`.}.`.}.{.{.`.S.h.#.i.S.~.}.}.`.}.`.`.}.XXI.q.g > X ",
"X > g q.I.XX}.`.`.}.`.{.}.!.S.i.+.h.S.T.XX}.}.`.}.`.`.}.!.S.i.+.i.G.`.}.}.}.`.}.}.}.XXI.8.p > X ",
"o > d 7.I.XX}.}.}.`.}.{.}.!.S.i.+.f.S.~.}.}.`.}.`.}.{.}.!.S.i.+.i.S.~.}.}.`.}.`.}.}.XXI.8.p > X ",
"X - d 9.I.OX}.}.`.}.`.{.}.!.G.x.+.f.F.^.}.`.}.`.}.`.}.}.~.S.i.#.i.G.`.{.`.}.`.}.`.}.XXI.8.d > X ",
"X , d 9.I.OX}.`.}.`.}.{.}.!.G.i.+.f.S.`.}.}.`.}.`.}.}.`.~.G.i.u.i.S.`.{.{.`.}.`.}.}.XXI.8.d > X ",
"X - d 7.I.XX}.}.}.`.}.{.{.`.G.i.#.i.S.!.{.`.`.}.}.`.{.OX!.S.i.#.i.G.^.}.}.`.`.}.}.}.XXI.q.d > o ",
"X > d 8.I.$X}.`.`.}.`.{.}.!.G.i.u.i.S.!.{.}.}.`.`.}.{.{.!.S.i.u.i.G.~.}.}.}.}.`.`.XXXXI.7.g > X ",
"X > d 8.I.XXXX}.}.`.}.{.}.!.S.i.#.i.S.!.{.{.`.}.}.`.{.{.`.S.i.@.i.G.~.}.`.}.`.}.}.}.XXI.q.s > X ",
"X > d 8.I.XX}.`.`.}.`.{.}.!.S.i.@.i.S.!.OX{.}.`.`.}.{.{.`.S.h.#.i.S.~.}.}.`.}.`.}.}.OXI.9.s > X ",
"X > p 8.I.XX}.}.}.`.}.{.}.!.G.x.u.i.K.~.{.{.}.}.`.}.`.}.!.S.i.+.i.G.~.}.}.`.}.^.^.}.XXI.8.d > X ",
"X > d 8.I.XX}.}.`.}.`.{.}.`.S.i.#.i.S.~.{.`.}.`.}.`.}.}.!.S.i.+.i.S.~.}.}.}.`.}.}.}.XXI.8.d > X ",
"X > p 8.I.XX}.'.}.`.}.`.}.!.G.i.#.i.S.~.}.}.`.}.`.}.}.}.~.S.i.#.i.G.~.}.}.`.^.}.'.}.XXI.8.d > X ",
"o > p 8.I.XX}.}.`.}.`.}.}.!.G.i.#.i.S.~.}.}.}.`.}.`.}.`.~.G.i.u.i.S.~.}.}.}.}.'.}.XXXXI.8.d > X ",
"o > g q.I.XXXX^.}.}.`.}.}.!.S.i.*.i.S.~.}.}.}.`.}.`.{.{.!.S.i...i.G.~.`.`.}.`.}.`.{.XXI.8.d , X ",
"o > d 7.I.XX}.}.}.^.`.}.}.`.G.i.*.h.G.^.}.}.`.}.`.}.{.{.!.G.i.i.i.K.!.}.}.}.}.`.`.OXOXI.8.a - X ",
". - d 9.I.XXXX'.`.`.}.}.}.!.G.i.+.u.C.~.}.}.`.`.}.`.{.{.!.C.u.X.i.C.!.}.{.}.}.}.}.}.XXI.8.d - X ",
"X , d 9.I.XXXX}.}.}.}.}.{.!.M.t.w.t.M.^.}.}.}.}.}.}.OXOX`.M.t.r.t.M.`.{.{.`.}.}.}.XXOXI.8.g - X ",
"X - g 8.E.XXXXXX}.}.{.{.OX/.m.e.1.e.m.Q.XXXX}.}.}.}.XXXX/.m.e.2.e.m.`.OX}.}.}.}.}.XXXXE.8.d > X ",
"X ; a 8.P.'.'.^.!.`.`.}.`.T.d.3.<.3.d.E.}.^.^.^.~.~.`.}.E.d.3.,.3.d.T.}.`.`./.`.^.}.}.P.7.p ; X ",
"X - i L n.L.L.D.S.V.F.H.K.V.t.1.:.1.s.M.H.H.F.F.S.F.F.H.V.t.1.>.1.s.S.H.F.F.F.F.S.H.L.n.L i - X ",
"o ; r A t.b.v.k.l.h.k.l.l.f.e.<.:.<.r.f.x.h.h.f.h.h.l.v.i.r.<.>.,.r.i.x.h.h.l.h.h.v.b.u.A r ; X ",
"X % w v ) @.#.+.+.+.+.' #.X.T F ;.D T ( +.+.#.#.#.+.#.#.` T H ;.H T _ #.#.' +.+.+.#.@.) b w - X ",
"X - w z / @...' ' ' [ [ [ ` T F D F T ` [ } ' [ ' [ [ [ ` T F ;.F R ` [ [ } ' [ ' ..@.~ z w - $ ",
"$ - 7 V / @.-.[ [ [ [ @...' Y F B F T ' ..[ [ #.[ [ @.@.' R F ;.F Y ` @...[ [ [ [ -.-./ V 7 % X ",
"O - 6 k I ` / W W W W W ! E U D B D U E ~ ~ E ~ W W W W E U D ;.D U E ~ ~ W W E W / / I k 6 - $ ",
"X - 4 h k V V z v V V k z z n M m M n v l z z z z v z l V v M m M b v v V z z v v V V k h 4 % X ",
"    < 4 7 q q w w w q 7 6 w t j   j t w 8 w w 6 8 w 8 8 q t j   j t w 8 7 6 w w w w w 6 4 <     ",
"      - - - - - % % - - - - -       ; - - % * * - - - % - ;       ; - % - - - - - % * * -       ",
"      O # o X # X X # o X X .       X $ X . $ O O $ X . X .       . X X o O O # X X $ $ X       "
};
