/* XPM */
static char *f251626cd88f4202e995ae3f8e548887upjUUEkGWo53JxrT[] = {
/* columns rows colors chars-per-pixel */
"48 48 210 2 ",
"   c None",
".  c #0A0C0C",
"X  c #060909",
"o  c #0B1212",
"O  c #091418",
"+  c #101515",
"@  c #151C1C",
"#  c #1A1E1E",
"$  c #121917",
"%  c #030F14",
"&  c #17201F",
"*  c #1A211E",
"=  c #22231F",
"-  c #3D2F1E",
";  c #162121",
":  c #1A2324",
">  c #1E2B2D",
",  c #182628",
"<  c #1E353A",
"1  c #222624",
"2  c #222828",
"3  c #2B2D25",
"4  c #383226",
"5  c #202F31",
"6  c #233133",
"7  c #263B3B",
"8  c #263537",
"9  c #383C3A",
"0  c #493D2B",
"q  c #5D482E",
"w  c #56442E",
"e  c #4C4B3B",
"r  c #5E4931",
"t  c #61492D",
"y  c #654D32",
"u  c #725535",
"i  c #2A3E44",
"p  c #213E40",
"a  c #2E4A4B",
"s  c #2C4347",
"d  c #314D4E",
"f  c #364649",
"g  c #344C52",
"h  c #345353",
"j  c #36525A",
"k  c #38555C",
"l  c #365A5A",
"z  c #3A5E5F",
"x  c #37514B",
"c  c #3A5A65",
"v  c #3E6264",
"b  c #464B4B",
"n  c #5F5342",
"m  c #535555",
"M  c #565D5D",
"N  c #465D5D",
"B  c #615D55",
"V  c #526859",
"C  c #786A47",
"Z  c #736B57",
"A  c #426566",
"S  c #42656D",
"D  c #416A6A",
"F  c #5E6464",
"G  c #466B77",
"H  c #49787C",
"J  c #616464",
"K  c #626969",
"L  c #6F7876",
"P  c #90673C",
"I  c #947E5E",
"U  c #AC7945",
"Y  c #AC7742",
"T  c #B27C46",
"R  c #B27F4B",
"E  c #987D62",
"W  c #74827B",
"Q  c #86805E",
"!  c #B98C56",
"~  c #AE8551",
"^  c #B2906C",
"/  c #CE8D4D",
"(  c #D18E4C",
")  c #D49C5A",
"_  c #C6985E",
"`  c #E99F56",
"'  c #EAA45B",
"]  c #F4A65A",
"[  c #F6A95C",
"{  c #FEAD5D",
"}  c #F5A456",
"|  c #FFB25E",
" . c #D49A60",
".. c #D1A46F",
"X. c #F5AC63",
"o. c #FFB462",
"O. c #E9B174",
"+. c #EBAE71",
"@. c #4E7C84",
"#. c #547E8D",
"$. c #567C88",
"%. c #507F90",
"&. c #4E8182",
"*. c #54838B",
"=. c #528789",
"-. c #568291",
";. c #598594",
":. c #5B8998",
">. c #5E9A9B",
",. c #769597",
"<. c #6E8E8C",
"1. c #6395A7",
"2. c #659BAC",
"3. c #6296A9",
"4. c #5FA2A3",
"5. c #64A5A7",
"6. c #66A8AA",
"7. c #6BACB2",
"8. c #6EAABC",
"9. c #69A0B2",
"0. c #70ABBE",
"q. c #76A8B6",
"w. c #6EB3BA",
"e. c #6BB4B7",
"r. c #73ADC3",
"t. c #74B2C6",
"y. c #76B5CB",
"u. c #7AB7CC",
"i. c #7AB9CF",
"p. c #75BFC6",
"a. c #7CBCD1",
"s. c #75BED6",
"d. c #77C3C5",
"f. c #7CC3D5",
"g. c #7DCCD5",
"h. c #7DC6D8",
"j. c #7ECAD9",
"k. c #7FD6D9",
"l. c #6FC0C1",
"z. c #878888",
"x. c #8E928B",
"c. c #A39D80",
"v. c #B5A594",
"b. c #99B8BA",
"n. c #8EAFAB",
"m. c #A9A9A9",
"M. c #A7B5A9",
"N. c #BAB9A1",
"B. c #ABB2B2",
"V. c #B4B5B4",
"C. c #B8B9BA",
"Z. c #CCB38B",
"A. c #D5B385",
"S. c #CDB291",
"D. c #EEBB87",
"F. c #F0BC83",
"G. c #CDC3B4",
"H. c #EAD2BA",
"J. c #87B9C6",
"K. c #82BED2",
"L. c #88BED2",
"P. c #90C7C8",
"I. c #80C6D9",
"U. c #81CBDB",
"Y. c #8ECDDC",
"T. c #99C7D8",
"R. c #9BCBD7",
"E. c #82D3DC",
"W. c #86D8DC",
"Q. c #80C2C3",
"!. c #AACBCB",
"~. c #A2CCDC",
"^. c #A3D1DF",
"/. c #84CDE0",
"(. c #84D3E1",
"). c #85DBE4",
"_. c #89DDE6",
"`. c #88DEE8",
"'. c #94DCE7",
"]. c #B3DAE5",
"[. c #8AE3E6",
"{. c #8BE5EB",
"}. c #8DEAEE",
"|. c #87E1E3",
" X c #92EAED",
".X c #99E4E7",
"XX c #8EEEF1",
"oX c #93EEF1",
"OX c #94F2F5",
"+X c #9FF8F9",
"@X c #A8EEF4",
"#X c #ABF9FA",
"$X c #B2F4F5",
"%X c #B4FBFC",
"&X c #BEFFFF",
"*X c #ADE5E8",
"=X c #C3CBC9",
"-X c #CBD5D6",
";X c #E6E3DF",
":X c #CBE7ED",
">X c #C8FBFC",
",X c #DAFCFC",
"<X c #D6F9FA",
"1X c #D6EFF1",
"2X c #E3E6E5",
"3X c #E7ECEE",
"4X c #EAEFF1",
"5X c #EAFFFF",
"6X c #E6F6F7",
"7X c #F2F7F7",
/* pixels */
"                                                                                                ",
"                                                                                                ",
"                                                                                                ",
"                                                        @ $ + o                                 ",
"                                                      @ @ @ : , ,                               ",
"                                                      $ @ 6 f l h s                             ",
"                                                      + * a H >.=.h &                           ",
"                                                      + , z 6.g.7.A 5 @                         ",
"                                                    X . ; v 7.|.d.*.k i 5                       ",
"                                            o . o o . . & z 7.[.).0.;.S i @                     ",
"                                          2 2 2 , 1 : : 6 D 7.|.`.U.0.#.j 2 &                   ",
"                                        f m F J J J M N D =.e.E._./.u.1.G k s 5                 ",
"                                + . X # m x.m.C.V.B.b.n.7.e.d.h.h.f.u.0.2.#.S i @               ",
"                              , : : @ 8 K V.2X7X7X3X:X*X[.W.g.f.a.a.a.i.i.q.#.j 2 ;             ",
"                            7 h l l l A <.!.,X5X5X,X>X@X{.).U.U.h.U.I././.i.2.@.c s 8           ",
"                          @ d &.4.6.5.7.Q..X$X&X&X%X@X'./.E.)._.`._.`././.K.r.2.;.G a ,         ",
"                        * 6 A 6.W.}.{.[.[.}.oXOXOX X_.U.f.j.).{.XXXX{.(.f.t.r.r.9.@.g : +       ",
"                      < a A <.P.$X%X#XOXXX[.).).).k.j.f.i.a.E._.}.OXXXk.7.:.;.:.#.S i ; +       ",
"                    ; a W 4.P.*X,X>X#XOX{.).j.I.j.j.f.i.y.a.f.U.[.OX}.d.&.k g g g i > @ $       ",
"                  * 7 v 4.k.$X<X5X<X#XOX).U.f.i.a.a.a.a.a.i.a.a.U.).E.6.A 5 & & : : @ @ @       ",
"                f m K <.Q.oX%X>X,X>X#X X|.g.a.L.T.~.~.Y.I.f.a.u.t.w.6.&.h : . . o + @ @         ",
"              2 m z.B.!..XoX#X#X%X#X+XoX).h.i.T.].:X:X.X_.E.h.y.3.@.A g 7                       ",
"            o 2 J m.2X<X#XoXXX}.{. X X}.).g.a.~.:X6X1X$X}.`.U.y.;.k 5 &                         ",
"            o 1 J V.7X5X&XOXk.l.7.w.k.).(.h.a.T.].:X>X@XoX{./.t.#.a # .                         ",
"            o 2 J V.7X5X&XoXl.=.G @.7.f./.a.a.L.~.~.*X XoX{./.t.#.g # .                         ",
"            . 2 J V.4X6X%XW.4.l 7 g #.r.i.a.u.i.i.L.U.`.{.`./.t.#.g , +                         ",
"            o 2 J V.4X1X!.6.G p ; 6 c #.3.8.u.u.u.y.s.(.).(./.r.-.g : +                         ",
"            o 2 J C.4X-X,.c s , @ : 6 g G 1.r.a.i.y.a.a.I.I.f.t.#.g : o                         ",
"            o 2 J V.;X=XL 9 # @ @ @ : 8 c :.t.a.a.i.a.a.a.a.f.r.-.g : +                         ",
"            . 2 M v.H.S.E t - = @ , < g G 1.y.I.j.U.U.j.I.I.I.u.;.g : +                         ",
"            O 1 n ^ D.O.) Y u - : < c %.1.8.u.h.(._._.`._.(./.u.-.g : +                         ",
"            O = y R X.o.o.` U t 4 g $.8.u.u.i.U.).{.XXoX{.).h.r.#.g : +                         ",
"            O = q T } | o.| / P u Z x.M.b.J.s.f.k.`.XXOXoXk.7.;.S s :                           ",
"            O = t T } | | | ' / ! ! ..A.M.b.i.f.h.j.`.XX Xl.&.k i 8                             ",
"            O = q Y ` | { { { } ] ] [ X...M.J.a.i.a.j.`.E.5.v 6 @                               ",
"          O o # 0 C ~ ) ' { | | | | | { O.S.M.b.J.i.y.8.5.&.d &                                 ",
"        @ O o $ 3 e C ~ ) [ | | | { { { X.O.A.N.J.J.2.@.v d 7                                   ",
"      $ @ # : 2 p x V W _ [ | { { { { { { [ ' Z.M.q.;.j < ;                                     ",
"      $ # 8 b J W <.z.^ ..o.| | | o.o.{ ` ( T E W $.G i $                                       ",
"      o : b z.V.=X!.=XG.F.o.| | | | o.{ ( P y e f d s 8                                         ",
"      o 2 M m.-X4X4X;XH.F.[ } } ] ] [ ` U y 3 # : : :                                           ",
"        2 M x.V.C.C.V.v.^ ~ U U T T R U P w @ % o o                                             ",
"          b M J K K J B n r q q r r q q 0 4                                                     ",
"            2 2 3 > 2 1 1 = = = = = = 1 1                                                       ",
"              o o o o o O O O O O O O O                                                         ",
"                                                                                                ",
"                                                                                                ",
"                                                                                                "
};
