/* XPM */
static char *d58232cea4f9415ecf7e3efe17cfab6bfVt3COyBiKTSeqsx[] = {
/* columns rows colors chars-per-pixel */
"48 48 160 2 ",
"   c None",
".  c #091316",
"X  c #061619",
"o  c #0A1719",
"O  c #0E181A",
"+  c #141B1B",
"@  c #1B1E1D",
"#  c #201F1D",
"$  c #21211D",
"%  c #2C241F",
"&  c #34271F",
"*  c #212522",
"=  c #2C2623",
"-  c #362924",
";  c #3B2B25",
":  c #442D22",
">  c #4A2F22",
",  c #412E28",
"<  c #4B3123",
"1  c #453028",
"2  c #4C332C",
"3  c #553425",
"4  c #5B3626",
"5  c #5C3926",
"6  c #573F2E",
"7  c #593B28",
"8  c #613926",
"9  c #6C3E2B",
"0  c #743E28",
"q  c #653E33",
"w  c #683F34",
"e  c #5B422C",
"r  c #5D482F",
"t  c #5D4A32",
"y  c #584939",
"u  c #5A503D",
"i  c #76412A",
"p  c #794229",
"a  c #6D4135",
"s  c #704335",
"d  c #7B4635",
"f  c #7F4938",
"g  c #585443",
"h  c #84462B",
"j  c #874D2F",
"k  c #89492C",
"l  c #974D2E",
"z  c #9C4F2E",
"x  c #9D512F",
"c  c #884D3C",
"v  c #8C4B31",
"b  c #8E503E",
"n  c #9D5130",
"m  c #93513E",
"M  c #9E563F",
"N  c #A1522F",
"B  c #A25330",
"V  c #A35E36",
"C  c #A2573F",
"Z  c #A4583F",
"A  c #AC5A3E",
"S  c #B75A32",
"D  c #BB5C33",
"F  c #B25C3E",
"G  c #B95F3E",
"H  c #A76037",
"J  c #AA6D3E",
"K  c #BE693B",
"L  c #CF6537",
"P  c #C4633C",
"I  c #CA643C",
"U  c #CF6A3C",
"Y  c #D46637",
"T  c #D3673A",
"R  c #D4693C",
"E  c #DA6A39",
"W  c #DF713E",
"Q  c #E36D3A",
"!  c #E96F3B",
"~  c #E6733D",
"^  c #EB713C",
"/  c #F1723C",
"(  c #965340",
")  c #9B5541",
"_  c #A45842",
"`  c #B75F40",
"'  c #B85F40",
"]  c #A36745",
"[  c #AF7945",
"{  c #AE7B48",
"}  c #B17E48",
"|  c #A47E5B",
" . c #C46740",
".. c #C66840",
"X. c #DA7543",
"o. c #DE7844",
"O. c #E57340",
"+. c #E27B42",
"@. c #EC7D43",
"#. c #F67C41",
"$. c #AD8455",
"%. c #A48F6C",
"&. c #A88C63",
"*. c #A5916D",
"=. c #A49573",
"-. c #DE8247",
";. c #DF8448",
":. c #ED8144",
">. c #EA864B",
",. c #EC8D4C",
"<. c #F38446",
"1. c #F98546",
"2. c #F38A49",
"3. c #EC924F",
"4. c #F6954F",
"5. c #FC904C",
"6. c #E18957",
"7. c #E88852",
"8. c #E88C58",
"9. c #EE915C",
"0. c #F69751",
"q. c #FE9650",
"w. c #F69852",
"e. c #FB9B52",
"r. c #F29F5F",
"t. c #F3935D",
"y. c #F1A257",
"u. c #FCA357",
"i. c #FDA559",
"p. c #F3A85B",
"a. c #FEAB5C",
"s. c #F0A35B",
"d. c #FFB15F",
"f. c #EEA76E",
"g. c #FFAF60",
"h. c #EEB16D",
"j. c #FFB261",
"k. c #FBB66C",
"l. c #E3A977",
"z. c #ECAE79",
"x. c #FAB770",
"c. c #FCBB73",
"v. c #F8BE7A",
"b. c #FFC076",
"n. c #E8BC82",
"m. c #F3B580",
"M. c #F3BF83",
"N. c #E1C08F",
"B. c #F5C485",
"V. c #F4C78A",
"C. c #FACB8C",
"Z. c #EEC892",
"A. c #E2C998",
"S. c #E3C391",
"D. c #F2CF9A",
"F. c #F0CB94",
"G. c #EFD19C",
"H. c #F4D29C",
"J. c #F2D8A5",
"K. c #F5DAA5",
/* pixels */
"                        o o X . . . . . . . o o o o X o X o . o o o o o                         ",
"                        # $ * * * * * * * $ $ $ $ # $ @ $ $ * $ $ $ $ #                         ",
"                      & > 3 e y g g g g u y t e 7 7 7 e t t r r e 7 3 > -                       ",
"                    + > p n ] | %.=.=.%.&.$.{ J H n H J J J $.} J V x i : +                     ",
"                  + % 4 z R 6.l.N.A.A.S.n.h.s.,.+.W W 3.a.p.p.y.3.@.U z 4 % @                   ",
"                % : 4 h S O.t.M.H.K.K.H.C.b.j.q.<.^ <.e.d.d.d.d.u.1.~ S h 4 : %                 ",
"              + : 0 z S Y Q 9.z.D.J.J.H.C.c.j.q.:.^ <.e.d.d.d.d.e.<.! Y S x p : @               ",
"            @ % 5 n Y Q Q ~ 8.f.Z.G.G.Z.B.c.g.0.:.~ :.0.a.d.d.a.0.:.! Q E Y x 4 % +             ",
"          % : 4 j K +.<.^ ~ 7.f.B.V.V.B.b.k.a.0.:.~ :.0.a.d.d.a.w.:.~ ! ! Q S h 5 : &           ",
"        + : 0 x K >.4.2.@.~ >.f.h.c.c.x.k.j.a.4.:.~ :.0.a.d.d.a.w.:.~ Q ! ! Y S x i : +         ",
"      + % 5 x R :.w.u.4.:.~ :.w.a.j.d.a.d.d.a.4.:.~ :.w.a.d.d.a.0.:.Q Q Q Q Q Q L x 5 % @       ",
"    & > 5 j K :.q.u.a.w.:.~ :.4.a.a.d.a.a.d.a.0.:.~ :.0.i.d.d.i.4.:.~ Q Q Q ! / Q S h 5 : -     ",
"o $ > 0 n K -.w.i.a.a.0.:.~ :.4.a.d.a.a.a.d.i.0.:.~ :.0.a.d.d.a.w.:.^ Q Q Q ! ! Q Y S n p < # o ",
"o $ 3 l T :.4.a.a.d.a.0.:.~ :.4.i.a.d.a.d.d.a.4.:.~ :.w.a.a.a.a.w.:.~ Q Q Q Q Q Q Q Q L l 3 # o ",
"o # 3 N E 1.e.a.j.d.a.0.:.~ :.w.a.a.d.a.d.a.a.0.:.~ :.4.a.d.d.a.w.:.Q Q Q Q Q Q ! ^ ^ E N 7 $ o ",
"o $ 3 x ~ <.e.a.d.d.a.w.:.~ :.0.a.d.d.a.d.a.a.0.:.~ :.4.i.d.d.a.w.:.Q Q Q Q ! Q Q ^ / E N 3 $ o ",
". # 3 z E <.q.i.d.d.a.0.:.~ :.0.a.d.a.a.d.d.a.0.@.~ @.w.a.d.d.a.w.:.~ Q Q Q Q Q Q ! ! E x 3 $ o ",
"o @ 3 z E <.e.a.d.j.i.0.:.~ :.0.i.a.a.d.a.d.a.4.:.~ :.w.a.a.d.a.w.:.~ Q Q Q Q Q Q ! ! E x 3 $ o ",
"o $ 3 x W <.w.a.d.d.a.0.:.~ :.0.a.a.d.a.d.a.a.w.:.~ :.0.a.d.d.a.w.:.~ Q Q Q Q Q Q ! ! E x 3 $ o ",
"o $ 3 x E <.q.a.d.d.a.0.:.~ :.0.a.d.d.a.a.a.a.4.:.~ :.w.i.d.d.i.4.:.~ Q Q Q Q Q Q ! ! E x 3 # o ",
"o $ 3 x E 2.w.a.d.d.a.0.:.~ :.w.a.d.d.d.d.d.a.w.:.~ :.w.a.j.d.a.w.:.~ Q Q ! Q Q Q ! / Y N 3 # o ",
"o $ 3 z E <.e.a.d.d.i.0.@.O.:.w.a.d.d.a.d.d.a.w.:.~ :.w.a.j.j.a.w.:.~ Q Q Q Q Q Q ! ! E N 3 $ o ",
". # 3 z W <.w.i.d.d.a.0.:.~ @.4.i.a.a.a.a.a.i.4.:.~ @.4.i.a.a.i.0.:.Q Q Q Q Q Q Q ! / Y z 3 # O ",
"o # 3 z E <.q.a.d.j.a.w.#.~ @.2.0.w.w.w.w.w.w.2.@.~ @.2.w.e.e.w.2./ Q Q Q Q ! Q Q ! ! E N 3 $ . ",
"o $ 3 z E <.q.a.d.j.a.w.:.~ ~ @.:.:.:.:.<.@.#.O.~ ! ^ @.:.<.<.:.@.^ ~ Q ! Q Q Q ! ! ! E n 3 $ o ",
"o $ 3 z E <.w.a.j.a.i.0.:.Q E Q Q ~ Q Q E O.Q Q Q E E ~ ~ E W ~ Q E Q Q Q Q Q Q Q ! ! Y n 3 # o ",
"o $ 3 z E <.e.a.a.u.0.>.X.I I P P I I I I I I I I I I P I P P I I I I T E ! Q Q Q ! ^ E n 3 $ o ",
"o $ 3 z E <.u.i.u.4.:.X. .F A A A A A A F _ A A A A A A A A A A A A F P T Q ! ! Q ! ^ E n 3 $ o ",
"o # 3 x W <.e.u.q.:.X.I F C m ) M _ M M ) M C ) M M M _ M C M M ) ) C F L E Q Q Q ! ! E n 3 $ o ",
"o $ 3 x E 1.5.4.,.X.L F C ( ) C A A A F ` ' F F F F F ' F A A A Z m m _ F I T Q ! ^ / E B 3 $ o ",
"o $ 3 x ~ / 1.<.o...F C m ( _ F P U U T T ....T T I T ....T L P F C ( ) Z F P T ! / / Q n 3 $ o ",
"o # 3 x L E Q Y P A M ( ( C ` I E E E T T Y E T T Y T Y E E E E I F M m ) M F P Y E Q Y z 3 $ o ",
"o $ < p z N N x n m m ) Z F P E Q Y D B N B N N N N N N B D E Q E P H A ) ( m n n B B l d 3 @ . ",
"    ; < 3 3 3 4 9 d m _ G I E ! Q D k 8 3 4 4 4 4 4 3 3 5 k D Q ^ E I K _ ( c 8 4 3 3 3 > ;     ",
"      $ $ @ @ * , s m F ..E Q Q L x 4 = @ # # $ $ $ # @ % 5 x L Q Q E ..` ( w , = @ @ # $       ",
"        o o o + , d A I Q Q T D x 9 ; @ . o O o O o o X + & i x D Y Q T ' ( w - + . X o         ",
"          X X @ < v P Q Q E D k 4 ; $ + O O O O O O O o + $ ; 5 v D E T ' ( w - + o o           ",
"            o # 3 z Y ! / E B 4 = O + + @ O @ + @ + + + + @ + % 8 B T T ' ( w ; @ O             ",
"            o $ 3 n E / ! E B 3 @ X O O O O O + O + O + O O X @ 3 n Y T ' b w ; @ +             ",
"            o $ 3 n E / / E n 3 @ o O + O O O O O O + O O o X @ 4 N Y X.' ( w ; @ o             ",
"            o $ 3 n E / / E n 4 @ O + @ @ @ @ @ @ @ @ @ @ + + $ 4 B T E ` ( a ; @ O             ",
"            o @ 3 n E ! / Y n 3 $ @ = , , , , ; , , , ; ; = @ $ 4 N T ..` ( w ; @ O             ",
"            o $ 3 n E / / E n 4 $ = 1 q s w w w a a a a w 2 = $ 4 n T T ` ( w ; @ O             ",
"            o $ 3 B E / / Y z 3 * - q ( ( ( ( ( ( ( ( ( c q - $ 4 N T U ` ( a ; @ O             ",
"              $ 3 n E / / E z 3 = ; a ( _ _ ) ) ( ) ) _ ( a ; = 3 N T R ' m w ; @               ",
"                                                                                                ",
"                                                                                                ",
"                                                                                                "
};
