/* XPM */
static char *_94bfddf79a74e40f684c9fca7b46d34PnB0FG0z2NZw9lS4[] = {
/* columns rows colors chars-per-pixel */
"64 64 92 1 ",
"  c #202020",
". c #272727",
"X c #2C2C2C",
"o c gray22",
"O c #3C3C3C",
"+ c #404000",
"@ c #4F4F0E",
"# c #585400",
"$ c #706C00",
"% c #7D7914",
"& c #666632",
"* c #484848",
"= c gray30",
"- c gray33",
"; c #5B5B5B",
": c #646464",
"> c gray42",
", c gray44",
"< c #777777",
"1 c gray47",
"2 c #797979",
"3 c #7C7C7C",
"4 c #848400",
"5 c #8C8C0C",
"6 c #9C9C00",
"7 c #8F8F13",
"8 c #B4AC00",
"9 c #A4A411",
"0 c #BEB723",
"q c #CCC400",
"w c #CDC602",
"e c #CFC709",
"r c #D1CA18",
"t c #E4D800",
"y c #E5D904",
"u c #FCF420",
"i c #959245",
"p c #B6B649",
"a c #BDBD5C",
"s c #9C9C7D",
"d c #B0AE76",
"f c #BABA76",
"g c #EAE141",
"h c #D1CC69",
"j c #C7C776",
"k c #E2DE76",
"l c #E3DE7A",
"z c #E4DF7E",
"x c #848484",
"c c #888888",
"v c gray55",
"b c #939393",
"n c gray59",
"m c #989898",
"M c #9B9B9B",
"N c #A4A487",
"B c #BCBA8C",
"V c gray63",
"C c #A7A7A7",
"Z c gray66",
"A c #AFAFAF",
"S c gray69",
"D c #B4B4B4",
"F c #B9B9B9",
"G c gray74",
"H c #C4C48A",
"J c #CDCD9C",
"K c #D5D59A",
"L c #D8D8B2",
"P c #E2E2B9",
"I c #C0C0C0",
"U c gray77",
"Y c #CBCBCB",
"T c gray80",
"R c #D0D0D0",
"E c gray84",
"W c #DADADA",
"Q c gainsboro",
"! c #E4E4CB",
"~ c gray89",
"^ c #E6E6E6",
"/ c gray91",
"( c #ECECEC",
") c #EFEFEF",
"_ c #F8F7E0",
"` c gray95",
"' c #F5F5F3",
"] c #F4F4F4",
"[ c #F8F7F3",
"{ c #FBFBF6",
"} c #F9F9F9",
"| c white",
/* pixels */
"XXXXXXXXXXXXXXXXXXXXXXXXXXXXXXXXXXXXXXXXXXXXXXXXXXXXXXXXXXXXXXXX",
"----------*QqqqqqQQQQQQ888Q ovZQQQQQqqq,vv- **********----------",
"----------*QR8888mZqqRIIqqv ovIDvq3q666$--o o,6666333,:*********",
"vvvvvvvv -*QR888$mqq6III48: oZQZv3q3$4$-3-o o6qt6$vDIqqq::qqvvvv",
"RD8DDZvv -*QR664$mq6ZZmvv6- ovIvvvZZ:4$-,-o o6t8$:3DQqtt*:qq43RR",
"ZZ88-,3, -*QI64$,3mZm6v,v4- o*Zq6Zvv3#-,--o o6t$:vDtq366*:64$*vm",
"Dm$-vvv, **QR6$$3Zmmm6vm,v- o*3648vZZ,:,ooo o46$:3qqq3$6*,:**:83",
"DD3vZv,- o*QRv33mZmR34mZvv- o*,vZvZvvvZ,oooXo4$:vv3q33$$*,3v,34:",
"mZZ,,v** X*QIZm3mqmmvmvvZv-  *-,,--ooooooo oo3:v3ZZ3vZ3*,vmvvZ3:",
"vvvv,-** X*Q(Z3m3q8,vvvZvv-X **ooooooooo  ooo3DDv63m33m:,mvmvvZv",
",,,,-*oo X*QQv3mmq6,ZvZvZv-X o*oXX     XXoooo3D36*vZt3v,v,m:,v::",
"--***    X*ZQZm3q86,mvv3v,:o o****,ZZZZQQ$ooo,Dv3::36o--:*******",
"     XXXXo-vQRv3v6,vvZ3v6v-o o*,ZuuQQQRRQq$oo-v,::-*#ooooooXXXXX",
"XXXXXXXXXo-,ZRvZvvvZvvmv::-o XoZuq6vvZvZ6,# oooooooooooXX       ",
"oooooooooo-*vRZvZm,mv3vZ4--o X*Zq43Zvttv6-$ooXXXXXXXXXXooooooooo",
"-*oooooooo-*,IvZmq6,ZvZv$-,* X*Zt43vqycn7-#o**---- *************",
"mmmmmmmmmX -*II4v64Z,vvv,:--  *tt33ZtgITB-oo*t88:-*-3mmmmmmmmmmm",
"Rq8QQq6,,o -*vI$:m:v,,Zv,v<=. *t3v3v6d||}-ooo884:X*3IqqqQ8ZZqqqQ",
"q84886$-,o -*,m::vv,v-v,-3CVvO*3v3vt:Z||]-o o64-: *mqqq3t63Zq64,",
"84Z864$-,o *-*mm,v:,,,,-,2|||;XZv,v,-b||]oo :64,- *mqq3m663mq64,",
"4Zv86$$--o *-*:--ooooooX -|||;Xv,ooo c||]   :v4v- *mZ3vm633Zq64m",
"ZvZ8$--v-o *-*XXXX       -|||;Xo-o   c||]XXXvZvZ- *vZmZmZ3Z3Z6$,",
"vZ33-,v,-o o--*o        *<|||3*vvm666j||}Xo:IQZI: *vvZtmvZmZZ33m",
"vq63vvv:*o ovqq86vDDD:o*:a|||hR(((qqqk||{ o3QIQZ, *3mZmvZmtm3ZmZ",
"v64Zvvv:*o oq88633333o-*6l|||ECmZDpVpJ||[ ovQZZIt *tZmZmtt3ZmmZm",
"m4vvvv,-oo o864:::::: -*m}|||QqZm/~(!(||[ ovtvvZ6 *6#,:t84$#,,-,",
":::::-*ooo o84::m46$: **m}|||_5mq|||||||' ov8,vZ$ *#oo*####**---",
"-**ooo    Xo84:mm34$: **S|||||CmqLQ^Q(||' ov,vZQ# *XX        oo*",
"      XXX***(:mZ4v4$: o*E||}||WZmDCv0H||' ot(ZQZ- *ooooXXX      ",
"*::,vmvvvv* (mmZ4v:3:+ ,]||W{|}G3mZm8f||' o8(IIZ- *ooooooooooooo",
":vD88vZZZZ: (ZRv$Zv3:+oY||`rP||(FZmZ8f||' $6QZZ8- *$6668844****-",
":D884:ZZZZ* (ZmZ3v3v:@m|||z6i(||QA3m8f||' o6QQ86- *,6$6668884mo-",
":864:vZ88,: (RZmZ4vZ2N`||^9$3F}||ED38f||] o6QZ8$- *m,,6644$$$3o-",
":86,,Z,84,: (mvmZvvxG{||~G(ZqeK}||Qx8f||] $vRI8#- *QZZ6$,,#:,:o*",
":,vZv,v8$,- QZZZmZZn`||Qcv(Iq4%T]|EA6f||] 6vRZ4$+ *RZv6$v3m:m:o*",
":ZZvZZ86$,- QI3mq83vS/I,*,RI4$:cY^Z86Z||] *vRv$#+ *IZZ6$3vmmZ-o*",
":QmZvv4$$,- IQvm84vZ>s& *-DQ$:3vZV4::Z||]o*3Z3$+#o*ZZv64,m3,m-oo",
":QZZvm$$,,- DQ3Zvvvv:++ o-vIm33,,,::,S||]o*-oo##oo*,-*--------oo",
":QDv84v,vm- mQZ3ZZ3v:-+ o-*vv,,--* +*V||]o*-**ooo**            o",
":QDZvmv86,- 3QmmZv:v3-+ X**oXXX  XXXob||]o************oooooooooo",
":Q88mv864,- -(ZZvvvZ3-# X***ooooo***-V||],,3333344443333333333o-",
":884Zm6$$:- *(mv63v33-# Xo:6666666433SQ~~ZZZZDDqqq84IIt8Iq84I3o-",
":843mmv$$: X*(Zv4:Zv:-#  o$qqqqqqqq6ZUDYCIZIIIq8444DDt8II8884:X*",
":843Zvvvv- X*(vZ::vv:-#  o$q88888884ZIZZIq6mZm84Zmqq83vI86843-X*",
":84vvZvZv- o*QZZZZvZ:-+  oX886666664$vIZZ66ZZmImZq883vmZ,,8,,-Xo",
"*43vZvZv:- o*RvvZvvv:-o  oXvvv64644$$,ZIZv3mImmZq333mZZmvv8,,-Xo",
"*vvvv3:-- Xo*DZvvZv3:-o  oXIQI6$$$$,,vZIvDvmmqqmv3,vvt8DZv8,,-Xo",
"*33,:---- Xo*mmZvvv,:-o  oXDQR4,,,,3mv6ZDZvDqZvvZvvmD84Zmm,,,- o",
"*o ------ o**3::::::--o  oXZQR,3vv884DvvDmZDZv8Z8ZmD84mZZm88,- o",
"---XX  X Xo*ooooooooooo  XXvRDvDmD88$vDvDmvvt8$mZImZmmZmvvD3,- o",
"****ooXXXXo*oo            Xvm,,,,,4$$vZ,3vDt8$ZvZmvvD3vvqmvm,- o",
"*3Zqqq6v:**-ooXXXXXXXXXXXXo-*oXXXXXX-,,3v8D$$33,:3vvv33D3:33:- o",
"*Zqtqqqq86Zv,:-*oooooooooo*-**ooooooX*----------------------- Xo",
"*Zqt8vvvmZI8ttqqq888884,3,::--*****ooXXXXX  XXXXXX           Xo*",
"*ZIm8mIIDIDIZvv666666664vvIZZZZZv*-*oooooooooXXXXXXXXXXXXXXXoo**",
"*ZIImIDZZmIZDIDZvvvvv444vmIQttvI3o*-***ooooooooooooooooooooo***-",
"*ZDRIDIt84DDRZRIIq6mvvvvvDZvt4v3: o-*4888:***---$864$$#*****----",
"*ZIIZv384#IZIRZZZRIIZIZRZ3ZRZvv:- o**8444:QQD--6qqq63qZZRqDm3**-",
"*Zv,:::4#,3,:,3,:::,3vZv3::::::--o o*:44$:DDD:-v33333ZZvq6,ZQm -",
"*v:*oooooooooooooooooooooooooooooo X*D4$:m:mv:*vvZvZqqZZ64,vZ- -",
"*o                                 X*o+#-:::::*::mZqq63Z4,,vv- -",
"-*oooXXXXXXXXXXXXXXXXXXXXXXXXXXXXXXXo*++o     o*--$#---$#----- -",
"----********ooooooooooooooooooooooooo****oooooo**              -",
"oooooooooooooooooooooooooooooooooooooooooooooooooooooooooooooooo"
};
