/* XPM */
static char *fed35aecade04063ef9172c4ef0ce636aCBlWcDS9YHVBJpe[] = {
/* columns rows colors chars-per-pixel */
"64 64 94 2 ",
"   c gray11",
".  c #382C14",
"X  c #3F341D",
"o  c #202020",
"O  c #282828",
"+  c #2C2C2C",
"@  c gray19",
"#  c #343434",
"$  c gray22",
"%  c #3E3E3E",
"&  c #403018",
"*  c #483818",
"=  c #4D3D1E",
"-  c #543C1C",
";  c #4B402C",
":  c #5C4020",
">  c #5F4425",
",  c #55472B",
"<  c #594B2F",
"1  c #6C4824",
"2  c #744C28",
"3  c #644F33",
"4  c #61543A",
"5  c #65583F",
"6  c #775736",
"7  c #7B5B3C",
"8  c gray25",
"9  c #464646",
"0  c #484848",
"q  c #4C4C4C",
"w  c gray32",
"e  c gray33",
"r  c #5A5A5A",
"t  c gray36",
"y  c #725A41",
"u  c #706859",
"i  c #736C5D",
"p  c #786E5F",
"a  c #7E735F",
"s  c #626262",
"d  c #646464",
"f  c DimGray",
"g  c #6F6F6F",
"h  c gray44",
"j  c gray46",
"k  c #7B7B7B",
"l  c #7C7C7C",
"z  c #80502C",
"x  c #987358",
"c  c #807562",
"v  c #8B7864",
"b  c #967E67",
"n  c #9B846E",
"m  c #8A8478",
"M  c #838383",
"N  c gray52",
"B  c #888888",
"V  c #8B8B8B",
"C  c gray55",
"Z  c gray57",
"A  c gray58",
"S  c #989898",
"D  c gray62",
"F  c #A2A2A2",
"G  c gray65",
"H  c gray66",
"J  c #AFAFAF",
"K  c #B4B0A9",
"L  c #B9B4A9",
"P  c #B1B1B1",
"I  c #B6B6B6",
"U  c #BBBBBB",
"Y  c gray74",
"T  c #CBBFB4",
"R  c gray76",
"E  c #C5C5C5",
"W  c #CCC8C0",
"Q  c #C8C8C8",
"!  c gray80",
"~  c #D7D4CF",
"^  c #D0D0D0",
"/  c #D5D5D5",
"(  c #D8D6D3",
")  c #DBD8D3",
"_  c gray85",
"`  c #DDDDDD",
"'  c gray88",
"]  c #E4E4E4",
"[  c #EBE7E3",
"{  c #ECECEC",
"}  c gray94",
"|  c gray96",
" . c #FBFBFB",
".. c white",
/* pixels */
"l l l * - : : 2 : : : : : : : : : : : : : : - & * : : : : - - * e d l l h h h h + + + + + + + 0 d h e d e e q q q q e t t d h l ",
"l h h e * - : 2 : : : : : : : - : : : : : : - & * : : : - * * e d l l h l h l l 0 + + + + + 0 d h e d e q q e e t d d d d d d h ",
"h h h d e * - 1 : : : : : : : : - - : : : : - & * : - - * 0 e d d 0 : : : : 0 d d 0 + + + 0 d h e d e q e t d d d d d d d d d d ",
"e h l h d e * 1 : : : : : : : : - - : : : : * & * - * * e d l 0 : : * * & * & * d d 0 0 0 d h e d d d d d d t e e q q q q q q q ",
"q e h h l d * 1 : : : : : : : : : : : : : - * & * * e d l l 0 : * * * * & * & * 0 l d d d h e d t t t t t t t t t t t t t t t t ",
"q q e h h h * - : : : : : - : : : : : : - & & * e d l l d : : * * * * * & * & & . d C H h e d e q q q q q q q q q q q q q q q q ",
"q q q e h l e * - : : : : : : : : : : - & & 0 e d l l 0 : * * * * * * * & & * . . d H l e d e q q q q q 0 q q q q q q q q q q q ",
"q q q q e h l e * - : : : : : : : - - & * e d d l d : : * * * * * * * * & & * . . d S l d e q q q q q q q q q q q q q q q q q q ",
"q q q q 0 e l d e * - : : : : - - & & e d d l l 0 : - * * * * * * & * * & . * . . d S d e q q q q 0 q q q q q q q q q 0 q q q q ",
"q q q q 0 0 l l d e * - - - - & & e d l l l d : : - * * * * * * * & * * & . & . . d C d e q q q 0 q q q q q q q q q q q q q q q ",
"q q q q 0 0 l h l d e & & & & 0 e d l l d 0 : - - * * * * * * * * * * * * . & . 8 d C d t q 0 q q q 0 q q q q q q q q q q q q q ",
"q q q q 0 0 h h l l d e e e e e d l l d : : - * * * - * * * * * * . * * * . . . q h l d t q q q 0 q q q q q q 0 0 q q q q q q 0 ",
"q q q q 0 $ h h d e e e d h S S C h d : - - * - - * * * * * * * * . * * * . . . e h C d e q q q q q q q q q q 0 0 q 0 0 0 0 q q ",
"q q q 0 $ d l d e e e e 0 d S C C d : * - - * - - * * * * * * * * . * * * . . . d h l d e q q q q q q q q q q q q q 0 0 0 0 q q ",
"q q 0 $ d l h e e e e e 0 0 h C l : - * : * * * * * * * * * * * * . * * * . . 8 d l l d e q q q q q q q q q q q q q 0 0 0 0 q q ",
"q 0 $ d l l d e e e e e 0 0 0 d e : * : - * * * * * * * * * * * & . * * * . . q h l l d e q q q q q q q q q q q q q 0 0 0 0 q 0 ",
"0 $ d l l h d e e e e e 8 q e 0 d : * : * * - * * * * * * * * * & . * * & . . e l l l e q q q q q q q q q q q q q q q q q q 0 $ ",
"$ d d 0 0 d h e e e e q 8 e e d d : * - * * * * * * * * * * * * . . * * & . . d 1 : d e q q q q q q q q 0 q q q q q q q q 0 $ 8 ",
"d d 0 - - 0 d d e e e 8 8 e e e h : - - * * * * * * * * * * * * . & * & . & t 1 : : e d 8 q q q q q q q q q q q q q q 0 8 $ 8 8 ",
"d 0 - : * - 0 l 0 e 8 8 8 e e e d d - - * * * = a a a a a a a p i p i i p Z b v v : * d d 8 0 q q q q q q q q q 0 8 $ # # $ 8 d ",
"0 - : * * * & d h 0 8 e 8 e e e 0 l 0 - * * * , ) ) ) ) ) ) ( ( ( ( ( ` ' ] ) ) ~ * * h h d 8 8 8 0 0 0 0 0 8 8 $ # $ 8 $ e d d ",
"- : * * * * & 0 l d 0 e 8 e e e 0 h d & * * * < ................................ .d d C C d d 8 $ # # # # # # # $ 8 8 $ e d l 0 ",
": * * * * * & & d h 0 e 8 e e e $ d l 0 * * * < ......W L K K K I R R Y Y Y Y Y U e l C S S h d e $ 8 8 8 8 8 8 8 8 $ e d l 0 - ",
"* * * - * * & * d l d 0 8 e e q $ d l d & * * < ......c X X 9 r f f t q 9 8 9 0 9 8 e l S S C l d e $ 8 8 8 8 8 $ $ e d l 0 - : ",
"* * * * * * & * 0 l l d 8 e q 0 $ d l l 0 . & < ......u . e d k s e 0 8 8 $ $ 8 % 8 8 e l C C h l d e $ $ $ $ $ $ e d l d - : * ",
"* * * * * * & * & d l h $ 0 0 0 $ h h l d . . ; ......m d M A M h g d d d s d s d 9 $ 8 h l h e e l d e $ $ $ $ e d l d 0 : * * ",
"* - - * * * . * & e h l d $ $ $ h l l l l 0 . ; ....../ Q / Q Q E R E R R R R Y R r $ 0 d h d 0 0 e l d e e e e d l d 0 - * * * ",
"* - - * * * . * & 0 l C h d d h l e 1 1 e d 0 r ..................................d # e d h e 0 0 0 e l l l C C l h 0 - * * * * ",
"* * * - * * . * & 0 l h C h h d 1 1 : : : : d g ^ ^ / / ! ! ` ......E E E E E Q R w @ e d d 0 0 0 0 0 d l C C l h d - * * * * * ",
"* * * * * & . * & 0 l h h h h 1 : : : : : : - l Z B N g h d D ......t s t e t s r % 0 d h e e 0 0 0 0 e d h h d t e - * * - - - ",
"* * * * * & & * & e h C h h h d : : : : > y 4 C M C g f g r S ......r r r w r r w w f M l l d d d d d d d l h t e t - * * - - - ",
"* * * * * . & & & e l l d e d l l : : : 3 L L ! ! Y U U U I / ......I I I P I I I P R J 2 2 2 2 2 2 2 2 2 * : 2 t d - * * - - - ",
"* * * * & . * & 0 d l d e t e d l l - - 5 ............................................[ 1 1 : : : : : : : * : : : k - * * * * * ",
"* * * * & . & 0 d d d e t e e e d l l d d / ` _ / ^ ! ^ / ^ ! ^ ^ ! ^ ! ! ! ^ ! ! / _ T : 1 : : : : : : : * : : - d - * * - * * ",
"* * * * . & 0 d d l e t e e e e e d l C M G S k h g g h k h h l l k g g f s g d s N k x : 1 : : - : : : : * : : - d - * * * * * ",
"* * * & . 0 d d h d e t e e e e e e d l C B C e 8 8 w j A D D H P G S A l t 0 @ d h 0 z : 1 : : : : : : : * : : - d & * * * * * ",
"* * * . 0 d d l l e t e e e e e e e e d C S S e 9 k H ^ { ............ .] R D g h h 1 z : 1 : : : : : : : * : : - d 0 & * * * * ",
"* * & 0 d d h l d e t e e e e e e e e e d S S d N _ ......{ ` / / _ ' } ......Q S d 1 z : 1 : : : : : : : - : : - d d 0 & * * * ",
"* & 0 d d h l d e t e e t e e e e e 0 e e d C k ] ....' U S N k j l N D I { ..../ e 1 z : : : : : : : : - - : : - d l d 0 & * * ",
"& 0 d d l l h d e e e e e e e e e e e 0 e e C J ......Z r 0 q 8 8 8 8 8 8 J .... .6 : z : 1 : : : : : : - : : : * d l l d 0 & & ",
"0 d d C C l d e e e e e t e e e e e e 8 e e d F ......h r 8 q 8 8 % 8 8 $ D .... .7 : z 1 : : : : : : : - : : : * d l l l d 0 0 ",
"d d S S C d e e e e e e t e e e e e e 8 0 e e j } ....! B k j f d f g M S ' ...._ 1 : z 2 : : : : : : - : : : : * d + + $ e d d ",
"d l S S h e e e e t t e e e e t e e e 0 8 e e e P { ....| ` ! E R E ! ] ......' n : : 2 z : : : : : : - : : : : * d + + + + $ e ",
"+ 0 C C d e e e t t t e e e e e e e e 0 8 e e e r A Q ]  ...............} ` ! F 1 : : 1 z : : : : : - : : : : : * d + + + + o + ",
"+ o 0 l e e e e t t t e e e e e e 0 e 0 8 0 e e e 0 l S P P U Y E R U P S Z B l - : : : 2 : : : : : : : : - : : * d + + + + o + ",
"+ o 0 h e e e e t t e e e e e e e e e 0 8 0 e e 0 $ d C B e % w r e q # 0 h h h d - : : 1 1 : : : : : : : : : : * d + + + + o + ",
"o 0 d d e e e e e e e t e e e e e 0 e 0 8 0 e 0 $ 0 l C C l e @ # $ $ @ e l h h l d - : : 1 : : : : : - - : : - * d + + + o + + ",
"0 d d d 0 e e t t e e e e e e e e 0 e 0 # 0 0 $ 0 e l 0 * 0 l e @ @ @ @ h l d $ $ d d - - : 1 : : : : - - : - * 0 d + + + o + + ",
"d h h h d 0 e t t e e e e e e e e 0 e 0 # 8 $ 0 e d 0 - * & 0 l d e e d l d $ + + $ d h d - : : : : : : : - * 0 d d o o o o o o ",
"l l h h l d 0 0 e e e e e e e e e 0 e 8 # $ 0 e d 0 - * * & * & 0 l l l d $ + + + + $ d h d - - : : : : - * 0 d h l l 0 0 0 0 0 ",
"l h l C C C d 0 0 e e e e e e e 0 0 e 8 # 0 e d 0 - * * * & * & * 0 l l 0 $ + + + + + $ d h h e - - - * * 0 d e e e e e e d l l ",
"l e 1 1 e C C d 0 $ e e e e e e 0 0 0 # 0 e d 0 - * * * * & * & * & l d $ O + + + O O + $ d l h e - * 0 0 d d e e e e e e 0 d l ",
"1 1 : : 1 1 e l d 0 $ 0 e e e 0 0 0 $ 0 e d 0 - * * * * * & * & * & l $ + + O + + O O + + $ d l h e 0 0 d l e e e q e e e 0 d l ",
": : : : : : 1 1 e d 0 $ 0 e 0 0 $ $ 0 d 0 0 - * * * * & * & * & & 0 d $ + + + o O + + + + + $ d l h d d C d q q e e e e q 0 d l ",
": - : : : : : : 1 * d 0 $ 0 0 $ 0 e d 0 - : - * * * * * * & & & 0 d $ + + + + + o o + O + + + $ d l h C C e q q e e e e q 0 d 1 ",
": : : : : : : - : * : : 0 $ $ 0 e d 0 - : - * * * * * & * & & & e $ $ + + + + + O o o O + + + + $ d l C d e e e e e e q 0 0 d 1 ",
": : - - : : : - : * : : - 0 0 e d 0 - - : - * * * * * & * & & 0 d $ + + O O + + + O o o O + + + + $ d l e e e e e e e 0 0 e 1 : ",
": : - - : : : - : * - * * e e d 0 - * - : * * * * * * & * & 0 d 0 $ + + O O O + + O o o o O + + + + $ d l e e e e e 0 q 0 d 1 : ",
": : : : : : - * - & * * e d d 0 - * * - : * - * * * * & & & e d $ $ + + O O + O + + o o o o O + + + + $ d d e e e q 0 0 e 1 : : ",
": : : : : : - * * & * e l l l 0 * * * - : * * * * * * & & 0 d $ + $ + + + + + + + + O o o O o O + + + + $ d q q q 0 q 0 e 1 : : ",
": : : : : : - * & & e l l l l e * * * - : * * * * * * & 0 d 0 $ + $ + + + + + + + + O o o o O o O + + + + o d q 0 e e 0 1 : : : ",
": : : : : : * & & e l e 8 e l d 0 * * - : * * * * * * & e d $ + + $ + + + + O O + + + O o   O O o O + + + o e d e e q d 1 : : : ",
": : : : : - * & e l e 8 8 8 e l e * * - : * * * * * & 0 d $ + + + $ + + + + O O + + + O o   o + o o O + + o e l q q d 1 : : : : ",
": : : : - & & e l l 8 8 8 8 8 e d * * - * * * * * & 0 e d + + + + $ + + O + + + + + + O o   o + O o o O + o e l l d d 1 : : : : "
};
