/* XPM */
static char *d9bce1429bfb4fe09661cee5cf0dea48IenfH5PGDc9Vci2a[] = {
/* columns rows colors chars-per-pixel */
"48 48 182 2 ",
"   c None",
".  c #010D14",
"X  c #061317",
"o  c #091317",
"O  c #061418",
"+  c #0B1619",
"@  c #0B191A",
"#  c #151C1B",
"$  c #1D1E1C",
"%  c #201F1D",
"&  c #2E1F1E",
"*  c #1E211E",
"=  c #21231E",
"-  c #29231F",
";  c #39231F",
":  c #212520",
">  c #2A2720",
",  c #272922",
"<  c #2B2C23",
"1  c #3D2420",
"2  c #332B22",
"3  c #3D2F24",
"4  c #333125",
"5  c #3A3225",
"6  c #373528",
"7  c #383629",
"8  c #3F3A2A",
"9  c #452721",
"0  c #4C2A23",
"q  c #462822",
"w  c #542C23",
"e  c #5A2D24",
"r  c #443626",
"t  c #4B3727",
"y  c #473827",
"u  c #493927",
"i  c #4B3A28",
"p  c #423E2D",
"a  c #5B3026",
"s  c #513E2A",
"d  c #5D3E2A",
"f  c #6C2F26",
"g  c #6E3026",
"h  c #743729",
"j  c #45422E",
"k  c #55422B",
"l  c #5A432C",
"z  c #5E482E",
"x  c #4B4531",
"c  c #554E35",
"v  c #584E35",
"b  c #575037",
"n  c #5C5237",
"m  c #5E5338",
"M  c #61432C",
"N  c #634A2F",
"B  c #79402C",
"V  c #714F30",
"C  c #7B4A30",
"Z  c #655235",
"A  c #6C5637",
"S  c #625639",
"D  c #655A3B",
"F  c #6B5D3D",
"G  c #755232",
"H  c #795633",
"J  c #7D5935",
"K  c #755C3A",
"L  c #7C643E",
"P  c #736441",
"I  c #7D6C44",
"U  c #87382A",
"Y  c #8E3A2B",
"T  c #803529",
"R  c #923C2C",
"E  c #993E2D",
"W  c #84442E",
"Q  c #98422E",
"!  c #814C31",
"~  c #924630",
"^  c #855C36",
"/  c #935635",
"(  c #B0412F",
")  c #A64530",
"_  c #AD4731",
"`  c #B44430",
"'  c #BE4832",
"]  c #AD5636",
"[  c #AB5D38",
"{  c #A45C38",
"}  c #BD5436",
"|  c #B75536",
" . c #8E6139",
".. c #87613A",
"X. c #93643A",
"o. c #9B663B",
"O. c #96683C",
"+. c #9B6A3C",
"@. c #A0693C",
"#. c #AB6E3E",
"$. c #A9613A",
"%. c #B26F3F",
"&. c #A7723F",
"*. c #AC723F",
"=. c #C74933",
"-. c #CB4C34",
";. c #D34B34",
":. c #D94D35",
">. c #C75637",
",. c #CD5C3A",
"<. c #D75237",
"1. c #DA5F3B",
"2. c #D15A3A",
"3. c #C66E3F",
"4. c #D6623C",
"5. c #DB603C",
"6. c #856D44",
"7. c #8A6C42",
"8. c #877449",
"9. c #897549",
"0. c #8E794B",
"q. c #857147",
"w. c #947B4B",
"e. c #AC7440",
"r. c #A27544",
"t. c #B47642",
"y. c #BA7B44",
"u. c #D76E40",
"i. c #CC7241",
"p. c #C37E45",
"a. c #C67442",
"s. c #D67C45",
"d. c #DC7A44",
"f. c #9E8551",
"g. c #AA814C",
"h. c #BB894E",
"j. c #A18752",
"k. c #A58A54",
"l. c #AA8E56",
"z. c #AD9057",
"x. c #B39559",
"c. c #B89659",
"v. c #BC9C5C",
"b. c #C48146",
"n. c #CB8346",
"m. c #CD8548",
"M. c #CE884A",
"N. c #D18748",
"B. c #D88548",
"V. c #D58A4A",
"C. c #DB8D4B",
"Z. c #DE914C",
"A. c #C09D5D",
"S. c #DB9A55",
"D. c #D29553",
"F. c #E08D4B",
"G. c #E2924D",
"H. c #EB9D54",
"J. c #C2A05F",
"K. c #D1A55F",
"L. c #EEA65A",
"P. c #C5A360",
"I. c #DBAA61",
"U. c #DBB369",
"Y. c #E4AE62",
"T. c #E1B76B",
"R. c #E5BA6C",
"E. c #EABE6E",
"W. c #E8B063",
"Q. c #EDC16F",
"!. c #EAC06F",
"~. c #EFC370",
"^. c #EDC170",
"/. c #F2C571",
"(. c #F4C672",
"). c #F0C371",
"_. c #F6C873",
"`. c #F9CA74",
"'. c #FBCC75",
"]. c #FECF77",
"[. c #FFD077",
"{. c #FFD278",
/* pixels */
"                                                                                                ",
"                                                                                                ",
"                                                                                                ",
"                                                                                                ",
"                                                                                                ",
"                                                                                                ",
"                                            o o o o                 +                           ",
"                                          : : : : : :             = * *                         ",
"                                        7 x v n n v x 7         2 y s i 3                       ",
"                                      $ x I f.l.l.f.6.x # . . # y G ^ H i *                     ",
"                                    # < S k.U.~.).U.l.D < # # < N +.h.+.k = +                   ",
"                                  4 j S 9.P.~.].[.~.J.0.D c c S 7.b.D.r.l * +                   ",
"                                * j I k.P.U.(.'.'.(.U.P.z.l.k.l.A.I.K.r.v = +                   ",
"                              # < m k.U.~.).~.(.(.).E.T.U.U.U.R.Q.(.R.l.v = o                   ",
"                            2 r k 6.v.~.].'._.(.(.~.U.A.x.J.T.(.{.{.!.l.v * .                   ",
"                          * r V O.h.I./.'.'._.'.'.R.v.q.F 8.v.~.{.{.!.k.v * .                   ",
"                        + * i  .b.S.W.E.Q.E.R.Q.(.R.z.D p D z.R._.(.U.j.m < #                   ",
"                        + = k o.V.L.L.Y.K.c.z.J.T.E.J.9.F 9.J.E.R.P.k.0.P D c 8                 ",
"                        + = s o.V.H.L.S.g.L D 8.J.!.R.J.x.P.R.E.J.8.D P w.k.0.v :               ",
"                        + = s  .b.C.C.m.+.z 8 S k.U.R.T.U.U.E.U.k.S 8 S k.P.f.b : o             ",
"                          * y G O.t.n.n.&.G l Z q.j.l.z.z.z.l.f.6.Z k A w.j.I j * +             ",
"                            2 y l J *.n.p.*.X.J Z b c n n n c n A ^  ...K m j < # #             ",
"                              # > l O.n.F.C.b.+.z 4 , , < < , 4 N +.y.+.z > # # # #             ",
"                              X # t X.n.G.G.V.%.H k r u u u u k ^ y.n.@.s # X + #               ",
"              @ + @ @         . # u X.n.G.F.C.b.*.O. .X.X.X.X.+.y.N.N.+.k $ X +                 ",
"            % $ % $ $ %       # - l O.m.C.C.V.N.N.n.s.N.n.b.b.p.b.M.b. .i * @                   ",
"          1 0 w w w 0 9 &   2 r l J *.N.C.C.V.B.d.B.d.d.s.i.%.@.o.o.X.G i *                     ",
"        $ 9 h R E E Y g ; % 5 G X.e.b.V.C.C.C.s.4.4.1.1.2.] ! M k i k y 5                       ",
"      @ $ 0 U ` =.-.' Y w 2 k X.b.V.V.V.V.V.C.s.4.<.<.<.>.Q a - * $ * *                         ",
"        % 9 g E ` -.;.( h z H e.C.G.G.C.C.C.V.s.3.5.1.5.>.~ 0 # O O O                           ",
"          ; q e T ( ;.>.$.o.e.b.C.G.F.C.C.C.V.B.F.d.d.d.3./ s $ O X                             ",
"            # - w R ' ,.i.N.N.N.V.V.N.m.N.V.V.V.n.s.B.B.n.X.s * +                               ",
"              # 1 g R ] a.C.G.Z.V.p.&.o.e.h.N.b.&.+.e.b.m.O.s = +                               ",
"                & 1 w C *.N.G.Z.M.e.G z H *.n.*.H z L e.b.O.k * +                               ",
"                  # - d o.n.Z.F.n.o.d r M @.p.@.M 3 M @.p.@.k = +                               ",
"                    * d { i.d.d.i.{ h e h $.3.[ B a B [ 3.$.M -                                 ",
"                      W | ,.4.4.,.} ) E ) } >.>.) E ) >.>.} W                                   ",
"                        -.<.<.;.;.-.=.=.-.-.;.-.=.=.-.-.;.>.                                    ",
"                          ;.-.;.;.;.:.:.:.;.;.;.:.:.:.;.;.                                      ",
"                                                                                                ",
"                                                                                                ",
"                                                                                                ",
"                                                                                                ",
"                                                                                                ",
"                                                                                                ",
"                                                                                                ",
"                                                                                                ",
"                                                                                                "
};
