/* XPM */
static char *_a914640a24e4051cf6f6be46e13c050S6hzp8xmrz85MGU3[] = {
/* columns rows colors chars-per-pixel */
"48 48 196 2 ",
"   c None",
".  c #0A1315",
"X  c #0A1719",
"o  c #0E1819",
"O  c #131A1A",
"+  c #1B1E1D",
"@  c #151616",
"#  c #1D211F",
"$  c #21201D",
"%  c #29231E",
"&  c #141F20",
"*  c #1F2321",
"=  c #222522",
"-  c #2D2529",
";  c #292722",
":  c #312723",
">  c #332824",
",  c #3D2C27",
"<  c #342A2A",
"1  c #382B28",
"2  c #3E332D",
"3  c #412A1F",
"4  c #442E23",
"5  c #432F29",
"6  c #4D3224",
"7  c #4B332B",
"8  c #453028",
"9  c #513324",
"0  c #593625",
"q  c #57382B",
"w  c #5B392F",
"e  c #462E36",
"r  c #4B343A",
"t  c #493634",
"y  c #5F3B30",
"u  c #583B3A",
"i  c #6A3C27",
"p  c #653E34",
"a  c #683F34",
"s  c #43453B",
"d  c #4F4639",
"f  c #554B3C",
"g  c #79432A",
"h  c #6B4034",
"j  c #734435",
"k  c #7A4635",
"l  c #7A4738",
"z  c #7B543B",
"x  c #4F334B",
"c  c #5E3C4B",
"v  c #56374B",
"b  c #553C51",
"n  c #5B3F51",
"m  c #623E4B",
"M  c #683E44",
"N  c #5E404F",
"B  c #545142",
"V  c #5A5746",
"C  c #5D5A48",
"Z  c #5D4053",
"A  c #6C4246",
"S  c #65424D",
"D  c #69434D",
"F  c #6F4E42",
"G  c #744343",
"H  c #794644",
"J  c #7E4B46",
"K  c #72464A",
"L  c #774849",
"P  c #7B4A48",
"I  c #684D59",
"U  c #744E52",
"Y  c #715157",
"T  c #6B6752",
"R  c #85472C",
"E  c #8B4A2C",
"W  c #934D2E",
"Q  c #864C3B",
"!  c #8B4E3D",
"~  c #8A4B31",
"^  c #924D3C",
"/  c #964F30",
"(  c #8F503E",
")  c #94523E",
"_  c #9A553F",
"`  c #9E5230",
"'  c #A45431",
"]  c #AB5732",
"[  c #A2573E",
"{  c #A7593F",
"}  c #AC5B3D",
"|  c #B35932",
" . c #BB5C33",
".. c #B25C3D",
"X. c #BA5F3F",
"o. c #B05436",
"O. c #BE603D",
"+. c #C95F39",
"@. c #C66136",
"#. c #CC6336",
"$. c #C4623D",
"%. c #CD653B",
"&. c #D46637",
"*. c #D96536",
"=. c #DF6837",
"-. c #D2663C",
";. c #D6683A",
":. c #DB6A3B",
">. c #D96739",
",. c #E26633",
"<. c #E36936",
"1. c #E46D3A",
"2. c #EA6F3A",
"3. c #E5713E",
"4. c #ED713B",
"5. c #F2723C",
"6. c #824C46",
"7. c #8A4F43",
"8. c #824C49",
"9. c #894E48",
"0. c #8E5043",
"q. c #86534A",
"w. c #945241",
"e. c #9B5541",
"r. c #97594C",
"t. c #865951",
"y. c #A25742",
"u. c #A55940",
"i. c #AC5B40",
"p. c #B05B40",
"a. c #B95E41",
"s. c #82624C",
"d. c #9E614C",
"f. c #8D655E",
"g. c #9B6655",
"h. c #8A775B",
"j. c #92765A",
"k. c #BB6141",
"l. c #B96A49",
"z. c #B26C50",
"x. c #A87458",
"c. c #846B69",
"v. c #8A7867",
"b. c #9C7665",
"n. c #AB7B63",
"m. c #C66844",
"M. c #C87247",
"N. c #D77447",
"B. c #C47653",
"V. c #DC7F50",
"C. c #EB7540",
"Z. c #EB7C46",
"A. c #E77D49",
"S. c #E97F4A",
"D. c #E67340",
"F. c #9C8B6B",
"G. c #BA8464",
"H. c #A48877",
"J. c #B38F74",
"K. c #AE9E79",
"L. c #A79775",
"P. c #BA9977",
"I. c #C5845E",
"U. c #DC8A5C",
"Y. c #DF8352",
"T. c #EA814C",
"R. c #E6824F",
"E. c #ED8D57",
"W. c #EE915C",
"Q. c #F0935D",
"!. c #C68967",
"~. c #CD9669",
"^. c #D4976C",
"/. c #C49975",
"(. c #D69B71",
"). c #EB9763",
"_. c #EC9964",
"`. c #E29D6C",
"'. c #F19A62",
"]. c #CAA17C",
"[. c #DCA779",
"{. c #DEAC7E",
"}. c #D2A278",
"|. c #E1A374",
" X c #EDAA76",
".X c #E5AC7A",
"XX c #E8AC79",
"oX c #EBB07C",
"OX c #F1B47F",
"+X c #CEAF83",
"@X c #D9B284",
"#X c #E0BE8E",
"$X c #FBBD85",
"%X c #F4B781",
"&X c #ECCA96",
"*X c #EAC895",
/* pixels */
"                                                                                                ",
"                                                                                                ",
"                                                                                                ",
"                                o o o o o o o o o o o o o o o o                                 ",
"                              % $ $ $ $ $ $ $ $ $ $ $ $ = $ $ $ $                               ",
"                              3 6 9 9 9 9 9 9 9 9 9 9 9 9 6 9 9 4                               ",
"                          @ 3 i R E E E E E E E E E E E E E E R g , O                           ",
"                        * ; d E | O. . . . . .|  .|  . . . . .| E 0 % O                         ",
"                        s f z } %.*.&.&.&.&.&.&.&.&.&.&.&.&.>.#.] g 9 >                         ",
"                    = s T h.x.%.1.2.1.1.1.1.1.1.1.<.1.1.1.2.1.1.@.' R i 4 $                     ",
"                    = B v.K.~.R.D.2.5.5.5.2.5.2.4.2.5.4.4.4.5.2.:.#.] R 6 $                     ",
"                  . = B F.+X.XE.5.4.2.5.2.5.C.2.4.5.2.5.4.5.4.4.3.>.@.W 9 $ X                   ",
"                  . = C L.@XOXQ.D.2.2.2.2.2.2.2.2.4.1.4.2.2.2.2.4.4.&.` 0 $ X                   ",
"                  . = C K.&X$XQ.D.<.<.1.1.1.1.1.1.1.1.3.1.1.1.1.4.5.1.' 0 $ X                   ",
"                  . = C K.&X&XQ.1.,.,.<.<.<.<.1.1.1.1.:.1.1.1.1.4.5.1.] 0 + X                   ",
"                  . = C K.&X$XQ.1.,.,.,.,.,.=.<.1.1.1.1.1.1.1.1.4.5.1.' 0 $ X                   ",
"                  . = V L.*X%X'.3.,.1.1.2.<.1.1.1.1.1.1.2.1.1.1.4.4.>.' 0 # X                   ",
"                  . = B F.@X X).R.A.A.A.S.Z.S.Z.D.2.2.2.2.2.2.1.1.1.%./ 9 # X                   ",
"                  . * d j./.|.`.).)._.'.'.'.'.E.Z.2.2.2.4.2.2.2.3.:.$.E 6 # o                   ",
"                  o * q s.n.^.|.XX X X X X X X).S.C.2.2.2.2.2.<.>.%.} k 8 # o                   ",
"                  o + 2 F g.G.(..XoX.X.X{.@X[.^.V.D.>.>.*.>.:.:.%.k.{ k 5 + o                   ",
"                  o + < u q.n.!.|..X[.(.]././.!.B.m.$.k.a.k.$.%.O.p.) h , + o                   ",
"                  o + - r D g.B.`.(.(./.J.H.H.n.z.a.p.y.e.y.p.a...u.( a , + o                   ",
"                  o + - e m r.B.Y.U.I.n.b.v.c.c.y.u.e.9.P 9.e.{ } _ Q h 1 + o                   ",
"                  O + - e D r.l.N.N.l.y.t.Y I K q.e.9.K S K 9._ _ e.) a 1 + o                   ",
"                  O + - r A w.+.*.%...^ H c b m P 9.J S b S J 7.w.e.( h , + o                   ",
"                  o + < u H u.+.*.#.o.^ j v x c H 7.J c b c L ( e.e.) h , + O                   ",
"                  o + 1 p 0.p.-.,.&...^ H c v N J 7.J S b S P 0._ _ ! a , + o                   ",
"                  o + , h ) k.;.=.-.p.w.P S b S J ( 6.D Z S J w.e.e.) h , + o                   ",
"                  o + , h ) k.-.*.%...e.J D N A 6.0.6.D c S J w._ e.! h , + o                   ",
"                  O # 1 h ) } $.%.$.p.w.J K D K 7.0.J D Z D J w.e.e.! h , + o                   ",
"                  o + 1 h ) p.O.$.X.} w.6.L K L 0.0.J S N D J 0._ e.) h 5 + O                   ",
"                  o + , h ! { ..O.{ _ ) 0.6.6.7.0.0.J D N N J w.) e.) h , + O                   ",
"                  o + 1 a ) e.y.[ [ _ e.w.0.0.w.e.0.J D N S J w.e.e.( h , + o                   ",
"                  o + , h ( e.e.w.w.) e.e.) _ _ _ ) J D Z S J w._ e.( h , # o                   ",
"                  o + 5 h ) e.w.) w.w.w.) _ _ _ _ 0.J D N D J w.e.e.) h , + o                   ",
"                  o + , h w.y.e.w.w.) ) ) w.w.w.) w.J S N S J w.e.u.) h 2 # o                   ",
"                  o + 5 h w.e.e._ w.w.e.0.0.6.0.w.w.J S Z S J 0.e.e.) h , # o                   ",
"                  o + , h ( e.e.e.) w.) 0.J P J 0.w.J D N S J w.e.e.( h , + o                   ",
"                  o + 1 h Q ) w.w.) e.w.6.K D K 6.0.6.D N D J ) _ ) ! h , + o                   ",
"                  o + 1 w k Q ! w.w._ w.J D Z D 8.0.9.K S K 9.w.) Q k y 1 + o                   ",
"                    + > 7 p j Q ) e.e.w.J D Z S 8.w.0.8.L P 0.w.Q j y 7 > +                     ",
"                        : , q k ( e.e.w.J S Z D 8.w.w.9.0.9.w.w.l q , :                         ",
"                        O = 5 h ( e.e.w.J S Z D 9.w.e.e.w.e.e.w.j 5 $ +                         ",
"                          + 1 a 0.e.e.w.8.D Z D 8.w.e.y.e.y.y.w.h 1 &                           ",
"                                                                                                ",
"                                                                                                ",
"                                                                                                "
};
