/* XPM */
static char *_5508b9342534f06f35f6123c2e24469g9eaMMDhZ4vprjUN[] = {
/* columns rows colors chars-per-pixel */
"48 48 93 2 ",
"   c #6EA23A",
".  c #6CA03D",
"X  c #7CAA37",
"o  c #75A53A",
"O  c #73A33C",
"+  c #7FA93D",
"@  c #84AB39",
"#  c #83AA3C",
"$  c #8CAD3A",
"%  c #8AB135",
"&  c #8EB235",
"*  c #85B13D",
"=  c #82B53C",
"-  c #8AB13D",
";  c #8EB23C",
":  c #88B53C",
">  c #8CBC39",
",  c #97B635",
"<  c #97B537",
"1  c #9AB736",
"2  c #96B138",
"3  c #95B33A",
"4  c #90B43B",
"5  c #93B73B",
"6  c #9AB438",
"7  c #9AB43B",
"8  c #9CB438",
"9  c #9EB538",
"0  c #9FB538",
"q  c #9FB638",
"w  c #9EB739",
"e  c #9AB73C",
"r  c #90BC39",
"t  c #99BC39",
"y  c #A1B337",
"u  c #A5B135",
"i  c #A5B536",
"p  c #A8B436",
"a  c #ABB737",
"s  c #A1B937",
"d  c #A7B837",
"f  c #ABB837",
"g  c #ACB937",
"h  c #ADBB37",
"j  c #A0B638",
"k  c #A2B738",
"l  c #A4B438",
"z  c #A4B73B",
"x  c #A8B739",
"c  c #A4B839",
"v  c #A6B939",
"b  c #A7B93A",
"n  c #A5BD3A",
"m  c #AABA39",
"M  c #AABA3A",
"N  c #ACBB3A",
"B  c #ADBB3A",
"V  c #AABC39",
"C  c #AABC3A",
"Z  c #A9BF3A",
"A  c #ACBC3A",
"S  c #AEBC3A",
"D  c #B1BE39",
"F  c #B1BF39",
"G  c #B0BD3A",
"H  c #B2BF3A",
"J  c #B2BE3B",
"K  c #B2BF3B",
"L  c #9AC238",
"P  c #A3C538",
"I  c #A5C539",
"U  c #A9C33A",
"Y  c #ACC03B",
"T  c #AFC03A",
"R  c #AFC23B",
"E  c #AFC63A",
"W  c #B3C13A",
"Q  c #B1C23B",
"!  c #B4C33B",
"~  c #B3C43B",
"^  c #B4C43B",
"/  c #B3C33C",
"(  c #B6C23C",
")  c #B4C53C",
"_  c #B7C43C",
"`  c #B6C73C",
"'  c #B8C63C",
"]  c #BACA3C",
"[  c #BACA3D",
"{  c #BCCB3D",
"}  c #BCCD3D",
"|  c #C1D13E",
" . c #C5D53E",
/* pixels */
"Q Q Y n n Z / / ! K N N N N G m N G N G N G N N G N N G N G N G N G N N G N K K ! J Z n v Z Z N ",
"Q Q Z Z n / Q ( Q K K N N G N G N N Z N G N Z N N G G G G N G N G N G Z N G K Q K ( m n Z Z N G ",
"Q Q R R n R Q K Q K G N G Z N G G N N N N G N G G N G N m G N G G G G N G N J K / / Y Y Z N R K ",
") / Q Q Q Q A A G N Q G N G N N Z G N G Z N G N N Z g N Z N M N N N K N N Z N G N A ( Y Q R Q Q ",
") ^ ) Q Q A Z N a A A N G N G N N N G G N G N N N K N N m m m M m Z K G G N N N m J J ( ! Q Q ! ",
"} [ [ Q A Z v k v m K N N G N N G N N N N m Z G N A N m m x z z v m N J N G N m N N Q Q ! ! Q ! ",
"| | [ ( Z v k 9 9 i Z N G N N K G G N Z N N G N G N N G m s k 9 9 d Z N G N N N N N G N K Q Q ! ",
" .| } Q m k 9 2 z z Z G N G J G K N G N N G N G N G N Z m z 7 6 k k N N K J K K K N N G A J ^ ! ",
"| | [ Q g z k 9 9 v m m K J N N G N G N m G N G G Q G N G i 9 z z v m m Z J J A N f N N g Q J J ",
"} [ ' Q N N i v k v m m A N N G Z g N G N N G N N N N G N N v k z m m m N N N N Z G N N N N K J ",
"] ^ ! Q G N m Z M M Z N A N A m m m N N N N Z N K Z N N N G m U m m m f N N N m m m N G N K N N ",
"^ ^ ! K J N N G Z N N N m v v z z m N K N J N G N N G K J N N N A A A N N x v v z x N N K N Z G ",
"^ ^ Q K A N G N N J N N v z 9 k k z g A G N N N N G N G N N G N G K N N z k 9 9 k v m A N G N N ",
"[ ^ Q Q N K N N J J J N z 9 6 6 8 i N J G J G G Z N G N K N N G N K J Z i k 1 8 9 i m ! J J N G ",
"^ ^ ~ A G N N K G J N Z z k 9 k k v Z K K N N G N G N Z Z N G N N K K m z 9 9 k k z m K J G N Z ",
"^ ^ ~ R N Z G G G J J m f k k v v f N N G N Z N G N G N G G N G K K N N v d z v x N Z N N G N N ",
") ) / N N Z G G N G N N N x a Z N K N N N G N Z N N N Z N G N G N G G N m m a N N G Z N N N N G ",
"' Q Q J N G N N Z N G G N Z G N N A Z G G N G N N G G N G N Z N N N N G N Z Z N G N N N m G G N ",
") ) / J G N N N N G Z N N G N G G N N N N Z N N G m N G G N N N N m G N N G N G N G G G G N N Z ",
"[ ) / J N G Z G G g G N G N G N N G G N G N G N N G N N Z G N G G N G N G N G N G N G N G N N G ",
"' [ Q Q G Z N N N Z N N N G N G G N N Z N G G m Z N G N N G G N N G N N N G G G N Z N G N Z G N ",
"` ^ ! G N G N G G N N G G N G N N G G N G N N G N G N N N N m G G N G Z G G a N N N G N G N N G ",
"[ ! ! Q G N N G N N G N Z N N Z Z G N G N Z N N G N Z N N G N N Z N G N N G Z N G N G N N G N N ",
"^ { ) N G N Z N G N m G G N G G N N G N G N N G N G G N G N G N N G N Z G N N G N G m N G N Z N ",
"[ ^ ~ Q A N Z N N N G N Z N G N N G M G G N N G G N N G N G N G G N Z G N Z G N N N G N N N G N ",
"[ [ ^ K A K N N N Z N G N G N G G G G G N N Z N N Z G N G N G N N G G N N N N G G N Z G G N m G ",
"] [ ! K N N G G N G N Z G N G N N G N N g G N G N G N G N N Z N G N N G G N G N G N G N N G N G ",
"] ^ ^ Q G Z G N G G N N K N N G N M Z g N N G G G N g g M N Z G N G J N N G N Z Z G N N Z N N N ",
"{ ! ^ Q N G N G N G N G J K A A m m m M Z N N N N G N m M N M M Z N K J N G N G N G N G G N G Z ",
"] { ^ J G N Z N G N G N A A m v v z b M N G N G G N G N M x z z v m N N G N G G N N G N N N N G ",
"] ] ! Q G N N G N G K G A Z v k 7 9 z v N N G N N G N N m d z 9 z i Z G N G J g N G N Z N Z N N ",
"{ ^ ! Q N G N J K G N N N N k 9 7 9 v m Z N K G N K N U m q 7 7 8 z Z N G N N G J N G N G N G N ",
"] ] ^ Q K N N N G K K N N m v k k 9 v m N G G K N G N G G z y 9 9 v m m K K N N G N N N G G N G ",
"] ^ ^ A N m Z N N N A N N m m z z z Z N G N G N G N G N N Z f z d v m m N N N G N N Z N G N G N ",
"{ ^ ^ Q N m m m N m N m m N m m Z N G N K N G N N G N G G N N Z m m N m N N N f g m m N N G N G ",
"' ' ( Q K m v z i m m m Z A m m N G N G N G N Z G N G N N G N G A A A A m v v k v v N K K J Q N ",
"] ' ^ ! J A z k k 9 k v N N J N G N G N N N G N Z N N G G N G N A J N N v z z 9 9 f A J K J K G ",
"[ ^ ^ ~ J N k k 6 6 9 z N J J J J N N G G N M G N G N N N G N G J J J N k 9 8 1 9 z N J K N N G ",
"~ E Q Q ! N z k 9 9 z z m ( J N N G N N N G G N G N G Z G Z N J A J A Z z k 9 k s v N J N U a i ",
"P P U R G K g m z v z m m G Z J G G N Z G N N N Z N N G N G N N A J ( m m z k z m N N K Z s 1 , ",
"L L L U K K K N N a g N Z N J G G N G M N N N Z N N G N G N N G N G N N Z m a f N G K g k 1 & % ",
"> > t n N g K D A A N Z N N N N N N N G G N G N G N m G N N Z N G N G Z N N A K K K K Z 9 & X X ",
"= : 5 v a N D K J J g N N N G N N Z g G N Z N G N G N G G N N G N G G N N N g ! K K K f 1 @ o   ",
"# * 4 w h g D D ! N K N G N Z G G N G N G N G N Z N N N Z G G N Z N N G N J J J K g a a 2 # O . ",
"- - 3 k a a Q ! J ( J N G Z N N N G N Z G N N G N N G N N G N Z N N G N N K K Q K K a i 6 $ # + ",
"w e 6 z p a A ^ / J N m N G G N N N G N N N Z N N G Z G N N G N N G Z G Z K N ! ! J a i y 6 e 7 ",
"z z y i p a Q ^ Q Q N G g G N G G Z N N G N N G G N N N G m G N G N N N g A K ! ! D p u i m A Y ",
"z a z u i a K ! ! K G N G N Z N N G G N Z G N N m G G N N G N N m G G N K N K ' ! D p u p Q / ) "
};
