/* XPM */
static char *acba6aaccb9c4817e14181a1cfd9e63cDsalDCPUFX0NSpTE[] = {
/* columns rows colors chars-per-pixel */
"43 43 4 1 ",
"  c #5AC8F2",
". c #60C9F2",
"X c #64CCF2",
"o c #66CCF2",
/* pixels */
"..  .... X  ..  ....  X... X  .. X  ..  .. ",
".oXXooooXXooooXXooooXXooooXXooooXXooooXXoo ",
".ooXXXooXXXXoXXXXXooXXXXXXXXXXooXXXXoXXXoo ",
".ooXXXXXXXXXooXXXXXXXXXoXXXXXXXoXXXXooXXoo ",
" oXXXXXXXXXXXXooXXXXXXooXXooXXXXXXXXXXXooo ",
" oXXXXXXooXXXXXoXXXXXXooXXXoXXXXooXXXXXooo ",
" oXXo oXXo o o o oXo o o oXo o oXo o o oXo ",
".oXoooXXoooooooooooooooooooooooooooooooXXX ",
".oooo.oooX o oXo o oXo oXo o.o.o oXo ooooo ",
".oooooooXXoooXoXoooXoooooXoooooooooooooooo ",
" oooo o.ooooXXoooooXXXooXoooXoooooXX oo oo ",
".o XoooooXo oXo o oXo o o o ooo o XXooooXX ",
".ooo o oXoooXoXoooooooXoXoooXoXoooXXooooXo ",
".ooooooo XooXXooooooooXXXXooXXXXooXoXo o o ",
".oooXo oooX oX oo oX oo oX oo oXXooooooooo ",
".ooooXooooXoXXooooXXooooXXooooXXoo o o oXo ",
" oXXoo o oooXo ooooo ooooX ooooo ooooooXoo ",
"XooXXooXooo XooXo XXoooXXXooo.XoooooooXo o ",
" oooXXXXoXooXXoXooXXX ooXXX ooXXo o o oooo ",
".oo XXooXoXXXXooXXXXXoXXXXXoXXXXooooXooooo ",
".oooXX oX o ooX o ooX oXooo o ooX oXoo ooo ",
".o oXXooXoooooXoooooooooooooooooXooooooo o ",
" oooXXo.o.oXo oXoXo oXo o o oXo oXo oo ooo ",
".oooXXooooooooooooXooooXooXoXoooXoooXoooXo ",
".oXX ooXoX oXoooXXo oo oooooo oo oo oooXoo ",
".oXoooXoXXoooo oXooooooooo ooooooooooooXXX ",
".ooo oX ooXXXoooXXoX ooooooooooX oXXo ooXo ",
".ooooooooo o o oXXoooooo o oo XXoXXoooooXo ",
" oXX oooXooXooooX oo o ooXoXooXXooXoooooXo ",
"XoXXooooooXXXoo ooooooooXXXXXXXo Xo oo o o ",
" ooX ooX oXoX ooo oXoooXo oXXoXXoXoooooooo ",
"XooooXXXoXooooXoooXo XXoooXooo oXoo Xooo o ",
".ooo.oooooooo oooXooooX oXoX oooooooXX ooo ",
".oXXoo.o o XXoooooo XXooooXXooXo oXoXooooo ",
" oXX ooooooXXo oX ooXXXoo oXXXooooX ooo oo ",
" oXXoo oooXXXoooooooXo oooo oXo XoooooooXo ",
".oXX ooooXooXX oXX o oooooooooooXXoXoXo oo ",
".ooooooo XoXXXooXXoooooooo oooooXXooXXooXX ",
".oooXo oooooo oXoo ooo.o oooXX oXoo oXX oo ",
".ooooXooooo ooXooooooooooo.oXXoo oXoXXXoXo ",
" oXXooo o oooooX ooo o.o ooXXXXooXXXXoo oo ",
"Xooooooooooooooooooooooooooooooooooooooooo ",
"                                           "
};
