/* XPM */
static char *_929fb90be274c55dd92e40b591103541bLmxsdh5bRSxhjm[] = {
/* columns rows colors chars-per-pixel */
"43 43 5 1 ",
"  c #727392",
". c #7C78AA",
"X c #827DAE",
"o c #8781B1",
"O c #8883B1",
/* pixels */
".........................................X ",
"XOOOOOOOOOOOOOOOOOOOOOOOOOOOOOOOOOOOOOOOOo.",
"XooooooooooooooooooooooooooooooooooooooooO.",
"Xooooooooooooooooooooooooooooooooooooooooo.",
"XooooooooooooooooooooooooooooooooooooooooO.",
"Xooooooooooooooooooooooooooooooooooooooooo.",
"XoooXooXooXooXooXooXooXooXooXooXooXooXooXO.",
"Xooooooooooooooooooooooooooooooooooooooooo.",
"XoooooXOoooXOooXOoooXOooXOoooXOooXOoooXOoO.",
"XooOXoooOXooOXoooOXooOXoooOXooOXoooOXooooX.",
"XooooooXOoooooooXOoooooooXOoooooooXOoooooO.",
"XooOXoooooOXOXoooooOXOXoooooOXOXooooOXOXoo.",
"XooooooXOXOooOoXOXOXOoOoXOXOXOoOoXOXOooOoO.",
"XoooOXoOooooOXoOoOoooOXoOoOoooOXoOoooOXooX.",
"XoooXOoXOoXOXOoXOXOoXOooXOXOoXOooXOoXOoooO.",
"XoooooOoooooOooOooooooooOoooooOXOoooooOXoo.",
"XooooXOXOXOXOXOXOoXOoXOXOXOXOooooXOXOXOooO.",
"XoOXoooOoooOooooooOXoOoooOoOXOXooOoOooooOX.",
"XoooooXOXOoXOooXOXOOoXOoXOooooOoXOXOXOXOXO.",
"XoooooOoooooOXoOooOXooooOXOXoOXoOoooOoooOo.",
"XoooXOXOoXOooooXOoooooXOoooOooooXOoXOoooXO.",
"XooooooooOXOXooOXOXooooOXoOXOXoooooOXOXoOo.",
"XoooooXOXOooOoooooOoXOoooooooOoXOXOooooooO.",
"XooOXoOoooOXOXOXoOXoOXOXOXOXOXoOooOXoooooX.",
"XoooooXOoXOooooOoooooOoooOoooOoXOooooXOXOO.",
"XoOXoooooooooOXOXOXoOXoOXOXoOXoOXOXooOoooo.",
"XooooooXOoXOXOooooOoXOooooOoooooOoooXOXOoO.",
"XoooOXoOXoOooooooOXoooOXoOXOXoOXOXooOooooX.",
"XoooooOoOoXOXOXOXOoooXOoooooOooooOoXOXOooO.",
"XooOXOXOXoooOooooooooooOXOXOXOXoOXoOooOXoo.",
"XoooooooOooXOXOoXOXOXOXOooOooooooooXOooooO.",
"XooOXoOXOXoOooooOoooOooooOXOXooOXoooOXOXOX.",
"XooooooooOoXOoXOXOoXOXOXOXOoOoXOoooooooooO.",
"XoOXoOXoOXoOXoOoOXoOoooOoooOXoooOXOXOXoooo.",
"XoooooooooooOoXOoooXOoXOooXOoooXOooOoooXOO.",
"XoooOXOXOXoOXoOXoooooooOXooooooooOXOXoooOX.",
"XooooooOoOoXOooOoXOoXOoooooXOXOoXOooOooXOO.",
"XoooXoOXOXoOooOXooooOXOXOXoOooooooOXOXoooo.",
"XooooooooooXOXOoooXOoooOoOoXOXOXOXOooOooXO.",
"XoooOXOXoooOoooooooOXoOXOXoOoooOoooOXOXoOo.",
"XooooooOoXOXOoXOXOoooooooooXOoXOXOoXOoOoXO.",
"XOooOoOoOOOOoOOOOOoOoOoOoOOOoOOOOoOOoOoOOO.",
".XXXXXXXXXXXXXXXXXXXXXXXXXXXXXXXXXXXXXXXXX."
};
