/* XPM */
static char *f56a93a54e0b47c9981621d49d99e49eK5SmSxeNLlbk55u8[] = {
/* columns rows colors chars-per-pixel */
"43 43 4 1 ",
"  c #97DF1A",
". c #9AE01F",
"X c #9DE127",
"o c #9FE128",
/* pixels */
".ooXooXooXooXooXooXooXooXooXooXooXooXooXXX ",
"ooXXXXXXXXXXXXXXXXXXXXXXXXXXXXXXXXXXXXXXXo ",
".oXXXXXXXXXXXXXXXXXXXXXXXXXXXXXXXXXXXXXXXo ",
"ooXXXXXXXXXXXXXXXXXXXXXXXXXXXXXXXXXXXXXXXo ",
".oXXXXXXXXXXXXXXXXXXXXXXXXXXXXXXXXXXXXXXXo ",
"ooXXXXXXXXXXXXXXXXXXXXXXXXXXXXXXXXXXXXXXXo ",
".oXXXXXXXXXXXXXXXXXXXXXXXXXXXXXXXXXXXXXXXo ",
"oXXXXXXXXXXXXXXXXXXXXXXXXXXXXXXXXXXXXXXXXo ",
".oXXXXXXXXXXXXXXXXXXXXXXXXXXXXXXXXXXXXXXXo ",
"ooXXXXXXXXXXXXXXXXXXXXXXXXXXXXXXXXXXXXXXXo ",
".oXXXXXXXXXXXXXXXXXXXXXXXXXXXXXXXXXXXXXXXo ",
"ooXXXXXXXXXXXXXXXXXXXXXXXXXXXXXXXXXXXXXXXo ",
".XXXXXXXXXXXXXXXXXXXXXXXXXXXXXXXXXXXXXXXXo ",
"ooXXXXXXXXXXXXXXXXXXXXXXXXXXXXXXXXXXXXXXXo ",
".oXXXXXXXXXXXXXXXXXXXXXXXXXXXXXXXXXXXXXXXo ",
"ooXXXXXXXXXXXXXXXXXXXXXXXXXXXXXXXXXXXXXXXo ",
".XXXXXXXXXXXXXXXXXXXXXXXXXXXXXXXXXXXXXXXXo ",
"ooXXXXXXXXXXXXXXXXXXXXXXXXXXXXXXXXXXXXXXXo ",
".oXXXXXXXXXXXXXXXXXXXXXXXXXXXXXXXXXXXXXXXo ",
"ooXXXXXXXXXXXXXXXXXXXXXXXXXXXXXXXXXXXXXXXo ",
".XXXXXXXXXXXXXXXXXXXXXXXXXXXXXXXXXXXXXXXXo ",
"ooXXXXXXXXXXXXXXXXXXXXXXXXXXXXXXXXXXXXXXXo ",
".oXXXXXXXXXXXXXXXXXXXXXXXXXXXXXXXXXXXXXXXo ",
"ooXXXXXXXXXXXXXXXXXXXXXXXXXXXXXXXXXXXXXXXo ",
".XXXXXXXXXXXXXXXXXXXXXXXXXXXXXXXXXXXXXXXXo ",
"ooXXXXXXXXXXXXXXXXXXXXXXXXXXXXXXXXXXXXXXXo ",
".oXXXXXXXXXXXXXXXXXXXXXXXXXXXXXXXXXXXXXXXo ",
"ooXXXXXXXXXXXXXXXXXXXXXXXXXXXXXXXXXXXXXXXo ",
".XXXXXXXXXXXXXXXXXXXXXXXXXXXXXXXXXXXXXXXXo ",
"ooXXXXXXXXXXXXXXXXXXXXXXXXXXXXXXXXXXXXXXXo ",
".oXXXXXXXXXXXXXXXXXXXXXXXXXXXXXXXXXXXXXXXo ",
"ooXXXXXXXXXXXXXXXXXXXXXXXXXXXXXXXXXXXXXXXo ",
".XXXXXXXXXXXXXXXXXXXXXXXXXXXXXXXXXXXXXXXXo ",
"ooXXXXXXXXXXXXXXXXXXXXXXXXXXXXXXXXXXXXXXXo ",
".oXXXXXXXXXXXXXXXXXXXXXXXXXXXXXXXXXXXXXXXo ",
"ooXXXXXXXXXXXXXXXXXXXXXXXXXXXXXXXXXXXXXXXo ",
".XXXXXXXXXXXXXXXXXXXXXXXXXXXXXXXXXXXXXXXXo ",
"ooXXXXXXXXXXXXXXXXXXXXXXXXXXXXXXXXXXXXXXXo ",
".oXXXXXXXXXXXXXXXXXXXXXXXXXXXXXXXXXXXXXXXo ",
"ooXXXXXXXXXXXXXXXXXXXXXXXXXXXXXXXXXXXXXXXo ",
".XXXXXXXXXXXXXXXXXXXXXXXXXXXXXXXXXXXXXXXXo ",
"oooooooooooooooooooooooooooooooooooooooooo.",
" ..                                        "
};
