/* XPM */
static char *f5cd706c16fc42b4d74ccd47ecfcdc60mAjTHvsy962wI5jO[] = {
/* columns rows colors chars-per-pixel */
"43 43 5 1 ",
"  c #1CB103",
". c #18BA03",
"X c #19BE04",
"o c #1AC007",
"O c #1EC40F",
/* pixels */
".o.o.oo.oooooooooooooooooooooooooooooooooo.",
".oooooooooooo.oooooo.oooooo.ooooooo.ooo.oO.",
".o.o.o.o.o...o.o...o.o.o...oo..o...o.X.o.o.",
".oXXXXXXXXXooXXXoXo.oXXXXoXX.oXXXooXoXoXXo.",
".oXXXXXXXXXXXXXXXXXXXXXXXXXXXXXXXXXXXXXX.o.",
".oXXXXXXXXXXXXXXXXXXXXXXXXXXXXXXXXXXXXXXXo.",
".oXXXXXXXXXXXXXXXXXXXXXXXXXXXXXXXXXXXXXo.o.",
".oXXXXXXXXXXXXXXXXXXXXXXXXXXXXXXXXXXXXXXXo.",
".oXXXXXXXXXXXXXXXXXXXXXXXXXXXXXXXXXXXXXX.o.",
".oXXXXXXXXXXXXXXXXXXXXXXXXXXXXXXXXXXXXXXXo.",
".oXXXXXXXXXXXXXXXXXXXXXXXXXXXXXXXXXXXXXX.o.",
".oXXXXXXXXXXXXXXXXXXXXXXXXXXXXXXXXXXXXXXXo.",
".oXXXXXXXXXXXXXXXXXXXXXXXXXXXXXXXXXXXXXX.o.",
".oXXXXXXXXXXXXXXXXXXXXXXXXXXXXXXXXXXXXXXXo.",
".oXXXXXXXXXXXXXXXXXXXXXXXXXXXXXXXXXXXXXX.o.",
".oXXXXXXXXXXXXXXXXXXXXXXXXXXXXXXXXXXXXXXXo.",
".oXXXXXXXXXXXXXXXXXXXXXXXXXXXXXXXXXXXXXX.o.",
".oXXXXXXXXXXXXXXXXXXXXXXXXXXXXXXXXXXXXXXXo.",
".oXXXXXXXXXXXXXXXXXXXXXXXXXXXXXXXXXXXXXX.o.",
".oXXXXXXXXXXXXXXXXXXXXXXXXXXXXXXXXXXXXXXXo.",
".oXXXXXXXXXXXXXXXXXXXXXXXXXXXXXXXXXXXXXX.o.",
".oXXXXXXXXXXXXXXXXXXXXXXXXXXXXXXXXXXXXXXXo.",
".oXXXXXXXXXXXXXXXXXXXXXXXXXXXXXXXXXXXXXX.o.",
".oXXXXXXXXXXXXXXXXXXXXXXXXXXXXXXXXXXXXXXXo.",
".oXXXXXXXXXXXXXXXXXXXXXXXXXXXXXXXXXXXXXX.o.",
".oXXXXXXXXXXXXXXXXXXXXXXXXXXXXXXXXXXXXXXXo.",
".oXXXXXXXXXXXXXXXXXXXXXXXXXXXXXXXXXXXXXX.o.",
".oXXXXXXXXXXXXXXXXXXXXXXXXXXXXXXXXXXXXXXXo.",
".oXXXXXXXXXXXXXXXXXXXXXXXXXXXXXXXXXXXXXX.o.",
".oXXXXXXXXXXXXXXXXXXXXXXXXXXXXXXXXXXXXXXXo.",
".oXXXXXXXXXXXXXXXXXXXXXXXXXXXXXXXXXXXXXX.o.",
".oXXXXXXXXXXXXXXXXXXXXXXXXXXXXXXXXXXXXXXXo.",
".oXXXXXXXXXXXXXXXXXXXXXXXXXXXXXXXXXXXXXX.o.",
".oXXXXXXXXXXXXXXXXXXXXXXXXXXXXXXXXXXXXXXXo.",
".oXXXXXXXXXXXXXXXXXXXXXXXXXXXXXXXXXXXXXX.o.",
".oXXXXXXXXXXXXXXXXXXXXXXXXXXXXXXXXXXXXXXXo.",
".oXXXXXXXXXXXXXXXXXXXXXXXXXXXXXXXXXXXXXX.o.",
".oXXXXXXXXXXXXXXXXXXXXXXXXXXXXXXXXXXXXXXXo.",
".oXXXXXXXXXXXXXXXXXXXXXXXXXXXXXXXXXXXXXX.o.",
".oXXXXXXXXXXXXXXXXXXXXXXXXXXXXXXXXXXXXXXXo.",
".oXXXXXXXXXXXXXXXXXXXXXXXXXXXXXXXXXXXXXX.o.",
".oXXXXXXXXXXXXXXXXXXXXXXXXXXXXXXXXXXXXXXXo.",
".XXXXXXXXXXXXXXXXXXXXXXXXXXXXXXXXXXXXXXX.o "
};
