/* XPM */
static char *ff0fccecf15c450f96d5b262d92a9585chULWFsjl5XdUOM2[] = {
/* columns rows colors chars-per-pixel */
"43 43 5 1 ",
"  c #7EC1AD",
". c #87C6B4",
"X c #88C1B3",
"o c #93C6C7",
"O c #9FD2C2",
/* pixels */
".O.O.o.O.o.O.o.O.o.O.o.O.o.O.o.O.o.O.o.O.o.",
" X. ... ... ... ... ... ... ... ... ... .. ",
" .X.X.X.X.X.X.X.X.X.X.X.X.X.X.X.X.X.X.X.X. ",
" ......................................... ",
"X..X.X.X.X.X.X.X.X.X.X.X.X.X.X.X.X.X.X.X.X ",
" ......................................... ",
"X.X.X.X.X.X.X.X.X.X.X.X.X.X.X.X.X.X.X.X.X. ",
" ......................................... ",
" ...X.X.X.X.X.X.X.X.X.X.X.X.X.X.X.X.X.X.X. ",
"X..X...................................... ",
" .....X.X.X.X.X.X.X.X.X.X.X.X.X.X.X.X.X.X. ",
" ..X.X.................................... ",
"X.X....X.X.X.X.X.X.X.X.X.X.X.X.X.X.X.X.X.X ",
" ...X..................................... ",
" .X...X.X.X.X.X.X.X.X.X.X.X.X.X.X.X.X.X.X. ",
" ...X..................................... ",
"X.X...X.X.X.X.X.X.X.X.X.X.X.X.X.X.X.X.X.X. ",
" ...X..................................... ",
" .X...X.X.X.X.X.X.X.X.X.X.X.X.X.X.X.X.X.X. ",
"X...X..................................... ",
" .X....X.X.X.X.X.X.X.X.X.X.X.X.X.X.X.X.X.X ",
" ...X.X....... ....... ....... ........... ",
" .X.....X.X.X...X.X.X...X.X.X...X.X.X.X.X. ",
"X...X.X......X.......X.......X............ ",
" .X......X.X...X.X.X...X.X.X..X.X.X.X.X.X. ",
" ...X.X.X...X.......X.......X............. ",
" .X.......X...X.X.X...X.X.X...X.X.X.X.X.X. ",
"X...X.X.X...X......X.X.....X.............. ",
" ..X......X...X.X.X....X.X...X.X.X.X.X.X.X ",
" ....X.X...X........X.....X............... ",
" .X.X....X..X.X.X.X...X.X...X.X.X.X.X.X.X. ",
"X.....X.X..........X.....X................ ",
" ..X.X.....X.X.X.X...X.X..X.X.X.X.X.X.X.X. ",
" ......X.X........X.X....X................ ",
" .X.X.X....X.X.X. .....X....X.X.X.X.X.X.X. ",
"X.......X. .......X.X.X..X. .............. ",
" ..X.X.X....X.X.X......X.....X.X.X.X.X.X.X ",
" ........X.......X.X.X...X.X.............. ",
" ..X.X.X..X.X.X.X.......X.....X.X.X.X.X.X. ",
"X.......X.........X.X.X...X.X............. ",
" .X.X.X....X.X.X.X.......X....X.X.X.X.X.X. ",
" ......X.X........X.X.X.X..X.............. ",
".............................X.....X...X.. "
};
